<svg width="69" height="69" fill="none" xmlns="http://www.w3.org/2000/svg"><path d="M34.411 0C15.405 0-.004 15.409-.004 34.415S15.405 68.83 34.411 68.83s34.415-15.409 34.415-34.415S53.418 0 34.411 0zm32.177 34.415c0 17.77-14.405 32.177-32.177 32.177S2.234 52.185 2.234 34.415 16.641 2.238 34.411 2.238s32.177 14.407 32.177 32.177z" fill="#6D6D6D"/><path d="M51.09 19.814a30.077 30.077 0 011.52 1.802l6.97-4.423a46.372 46.372 0 00-1.318-1.635l-4.413 2.918-.302.259.225-.328 1.948-3.889-1.378-1.378-3.89 1.949-.328.224.26-.301 2.92-4.411a42.438 42.438 0 00-1.637-1.324l-4.423 6.963c.56.431 1.3 1.064 1.77 1.495l4.165-2.16.267-.197-.196.267-2.16 4.169zm-15.814-8.825l1.904-4.266.121-.378-.034.395.2 5.7a28.19 28.19 0 012.038.269l-.31-8.442a42.258 42.258 0 00-2.845-.22l-1.876 4.655-.066.346-.067-.346-1.874-4.656c-.947.04-1.894.116-2.845.22l-.31 8.443c.68-.114 1.37-.204 2.038-.27l.2-5.7-.034-.394.122.378 1.903 4.266h1.735zm-15.399 6.727c1.1-1.159 1.724-2.499.623-3.777-.599-.694-1.605-.846-2.438-.504l-.083.032.026-.073c.123-.33.202-1.382-.694-2.108-.437-.354-.985-.486-1.54-.43-1.034.106-1.83.812-3.994 3.226a52.208 52.208 0 00-2.175 2.623l5.947 5.641c1.97-2.181 2.774-2.993 4.328-4.63zm-7.76-1.38c1.198-1.464 2.47-2.794 3.047-3.32.182-.166.38-.332.621-.397.39-.107.793.17.884.571.092.403-.161.785-.443 1.1-.633.715-2.956 3.145-2.956 3.145l-1.153-1.099zm2.329 2.21s2.262-2.392 3-3.156c.294-.304.482-.488.684-.587.262-.128.547-.154.802.016.25.168.366.457.303.744-.075.342-.354.668-.584.917l-3 3.21-1.205-1.144z" fill="#6D6D6D"/><circle cx="34.488" cy="34.492" r="19.232" stroke="#6D6D6D" stroke-width="1.302"/><path d="M53.205 34.416H34.412V15.624c10.386 0 18.793 8.406 18.793 18.792z" fill="#fff"/><path d="M34.414 34.416v18.792c-10.386 0-18.793-8.407-18.793-18.792h18.793z" fill="#fff"/><path d="M34.414 15.623v18.793H15.62c0-10.385 8.407-18.792 18.793-18.792zm18.791 18.793c0 10.385-8.407 18.792-18.793 18.792V34.416h18.793z" fill="#0066B1"/></svg>