<svg width="187" height="42" fill="none" xmlns="http://www.w3.org/2000/svg"><path fill-rule="evenodd" clip-rule="evenodd" d="M20.235.822c-.33.05-1.405.2-2.392.336-6.71.922-13.269 6.13-15.77 12.523-1.526 3.902-1.867 8.957-.857 12.723C3.149 33.61 8.678 39.085 16.1 41.144c2.561.71 7.69.711 10.377.003 2.334-.615 5.406-2.119 7.386-3.614 3.12-2.356 6.223-6.785 7.273-10.38.208-.715.487-2.337.62-3.605.973-9.362-4.205-17.86-12.99-21.316-2.338-.92-6.833-1.663-8.531-1.41zm5.095 2.354c.946.206 2.797.889 4.113 1.517 5.483 2.619 9.033 7.212 10.271 13.289.694 3.409.32 6.846-1.126 10.354-1.033 2.503-2.132 4.088-4.349 6.27-2.946 2.901-6.4 4.537-10.774 5.102-6.634.858-13.264-2.016-17.392-7.54C.93 25.287 1.5 15.172 7.39 8.8c3.55-3.84 8.388-5.944 13.755-5.981 1.433-.01 3.184.139 4.186.357zM96.14 7.52c-3.926 1.147-6.975 4.484-8.249 9.028-.59 2.104-.626 6.818-.069 8.99.527 2.053 1.77 4.608 2.82 5.799 1.118 1.265 3.727 2.966 5.354 3.49 1.759.568 5.69.564 7.596-.006 2.124-.636 4.513-2.277 5.791-3.98 2.101-2.8 2.92-5.491 2.92-9.598 0-6.993-3.331-12.19-8.807-13.738-2.054-.58-5.34-.574-7.356.015zm25.14-.026c-2.704.883-4.676 2.502-5.663 4.646-.444.965-.543 1.595-.543 3.428.001 1.968.08 2.393.631 3.429 1.179 2.213 3.408 3.715 6.651 4.48 3.695.872 4.951 1.306 5.583 1.931 1.204 1.19.695 2.838-1.13 3.657-1.221.549-2.427.567-4.177.065-1.648-.474-2.234-.818-3.631-2.135l-1.082-1.02-2.146 2.14-2.146 2.14 1.582 1.49c2.605 2.455 5.366 3.448 9.573 3.445 4.811-.003 8.278-1.813 9.962-5.2.572-1.15.647-1.572.646-3.664 0-2.047-.079-2.518-.59-3.506-1.125-2.179-2.859-3.287-6.565-4.197-4.569-1.122-4.974-1.257-5.658-1.889-.864-.798-.925-1.828-.161-2.697 1.531-1.743 5.271-1.354 7.658.796l.663.597 2.161-2.118 2.161-2.117-1.057-.955c-1.346-1.216-3.465-2.33-5.342-2.809-1.937-.493-5.777-.46-7.38.063zm26.24-.094c-3.663.876-6.203 2.858-7.896 6.159-1.393 2.716-1.603 3.7-1.588 7.447.011 2.838.102 3.703.529 5.022 1.168 3.605 2.611 5.62 5.264 7.346 2.298 1.496 3.632 1.865 6.74 1.865 3.017 0 4.75-.412 6.573-1.565 1.267-.801 3.96-3.552 3.96-4.046 0-.155-1.187-1.058-2.637-2.005l-2.636-1.724-.857.99c-1.19 1.374-2.37 1.92-4.154 1.92-3.132 0-5.209-2.107-5.987-6.071-.485-2.47.282-5.588 1.815-7.382.791-.926 2.866-1.915 4.016-1.915 1.464 0 2.967.688 3.976 1.822.611.686 1.081 1.02 1.311.933.198-.075 1.441-.837 2.763-1.693l2.404-1.557-1.091-1.373c-1.107-1.393-2.664-2.65-4.185-3.378-2.253-1.08-5.741-1.413-8.32-.795zM62.624 21.184l.062 13.417H78.95l1.595-.771c3.676-1.778 5.365-5.513 4.122-9.118-.461-1.339-2.08-3.057-3.288-3.488-.775-.277-1.233-.927-.653-.927.407 0 1.73-1.252 2.352-2.225.464-.726.641-1.371.722-2.62.234-3.641-1.383-6.034-4.88-7.223-1.237-.42-2.039-.463-8.858-.463h-7.499l.062 13.418zm101.348.059v13.476h7.174V24.08h8.371v10.64h7.175V7.765h-7.175v9.93h-8.371v-9.93h-7.174v13.477zM11.382 9.595c-2.57 2.193-3.713 3.864-4.825 7.054-.622 1.783-.708 2.354-.704 4.672.005 3.338.58 5.32 2.38 8.197 1.544 2.47 3.888 4.492 5.207 4.492h.816v-6.856h14.11v6.856h.79c2.053 0 5.626-4.226 6.903-8.165.715-2.205.766-6.61.102-8.74-.868-2.784-1.832-4.361-4.001-6.547C30.317 8.7 30 8.476 29.23 8.476h-.864v7.092h-14.11V8.476h-.782c-.587 0-1.106.277-2.092 1.119zm.628 21.276c-.223.22-2.07-2.037-2.75-3.36-2.559-4.978-1.78-11.277 1.864-15.087l.86-.898.062 9.624c.035 5.293.018 9.667-.036 9.721zm19.522-18.317c1.083 1.31 2.174 3.28 2.716 4.906.656 1.97.582 6.004-.148 8.039-.83 2.318-2.912 5.438-3.628 5.438-.106 0-.193-4.363-.193-9.694 0-5.42.093-9.694.211-9.694.116 0 .584.452 1.042 1.005zm44.244 1.212c1.216.805 1.342 2.721.25 3.8-.751.743-1.523.883-4.371.793l-2.272-.072-.07-2.21c-.047-1.507.026-2.324.23-2.566.455-.542 5.329-.342 6.233.255zm25.817.04c2.122.715 3.404 2.547 3.892 5.565.663 4.091-.626 7.658-3.245 8.979-1.22.615-3.501.62-4.706.009-2.393-1.214-3.593-4.149-3.34-8.168.31-4.898 3.538-7.685 7.399-6.385zm-73.28 7.496l-.066 3.842-6.996.063-6.995.062V17.46h14.122l-.066 3.842zm48.04 2.928c1.39.652 1.86 2.06 1.145 3.427-.586 1.121-1.57 1.388-5.118 1.388h-3.117v-5.202h3.133c2.404 0 3.324.09 3.957.387z" fill="#000"/></svg>