<svg width="173" height="30" fill="none" xmlns="http://www.w3.org/2000/svg"><g clip-path="url(#clip0_132_9129)"><path d="M117.451 3.71s5.186.272 3.549 4.173c-1.274 3.084-5.55-2.54-6.915 2.994-.182.634-.182 4.172-.091 7.348-.091 1.451 1.274 4.445 3.912 2.63v-3.9c-3.912 0-3.275-4.9 0-4.9 2.366 0 1.547-.09 3.003 0 0 0 2.183.273 2.092 4.718 0 0 0 3.266-.091 5.715-.273 1.27-1.001 2.722-4.64 3.448-3.548.634-6.277-1.27-6.823-1.815-.546-.544-2.183-2.086-2.456-5.17-.182-3.085-.273-6.532 0-9.254.364-2.721 2.274-4.263 4.367-5.261 2.092-1.089 4.093-.726 4.093-.726zm11.827 17.054V16.59h3.093c-1.273 0 0 0 0 0 3.366 0 3.639-4.536.091-4.717h-3.184V8.698h3.457c-1.273 0 0 0 0 0 3.366 0 3.548-4.717 0-4.898-.819 0 0 0 0 0h-6.186c-2.093.09-2.82 1.088-2.82 4.899 0 0 0 2.721 0 0v12.065c0 3.72.727 4.717 2.911 4.808h6.186c-.819 0 0 0 0 0 3.548-.182 3.366-4.808 0-4.808h-3.548zm-85.246 0v-4.173h3.093c-1.273 0 0 0 0 0 3.366 0 3.64-4.535.091-4.717h-3.184V8.7h3.457c-1.273 0 0 0 0 0 3.366 0 3.548-4.717 0-4.808-.819 0 0 0 0 0h-6.186c-2.093.09-2.82 1.089-2.82 4.808 0 0 0 2.722 0 0v12.065c0 3.72.727 4.718 2.91 4.808h6.187c-.819 0 0 0 0 0 3.548-.181 3.366-4.808 0-4.808h-3.548zm107.717 4.355l-5.186-8.89c2.092-1.543 3.457-3.176 3.366-5.806 0-3.538-3.002-6.441-6.459-6.441-1.729 0-4.367-.091-4.367 0-1.456 0-2.457 1.179-2.457 2.63v16.33c0 1.45 1.001 2.721 2.457 2.721 1.455 0 2.547-1.18 2.547-2.721v-5.716l5.732 10.251c.728 1.27 2.365 1.815 3.548 1.18 1.183-.726 1.546-2.268.819-3.538zm-8.916-12.338h-1.183V8.245h1.183c1.274 0 2.365.998 2.365 2.268 0 1.27-1.091 2.268-2.365 2.268zm-34.663 9.163l-3.366-5.715c2.092-1.543 3.457-3.175 3.366-5.806 0-3.538-3.002-6.532-6.459-6.532h-4.185c-1.456 0-2.366 1.18-2.366 2.722v16.329c0 1.451 1.092 2.721 2.547 2.721 1.456 0 2.457-1.18 2.457-2.721l-.091-4.808 3.73 6.168c.728 1.27 2.365 1.815 3.548 1.18 1.274-.726 1.638-2.268.819-3.538zm-6.914-9.253h-1.183V8.246h1.274c1.273 0 2.365.997 2.365 2.267-.091 1.18-1.183 2.178-2.456 2.178zm-26.02 1.451c1.82-1.542 2.456-3.357 1.91-5.625-.636-2.812-2.911-4.536-5.822-4.536H67.32c-1.365 0-2.548 1.18-2.548 2.722v16.329c0 1.451 1.092 2.721 2.548 2.721h4.73c2.457 0 6.642-2.086 6.642-6.168 0-2.54-1.183-4.355-3.457-5.443zm-5.459-6.078h1c1.184 0 2.093.816 2.093 1.905 0 1.088-.91 1.995-2.092 1.995h-1v-3.9zM70.96 21.49h-1.274v-4.717h1.274c1.365 0 2.456 1.088 2.456 2.358 0 1.36-1.091 2.359-2.456 2.359zm-33.931 1.542c0 3.629-5.368 3.357-5.368.181V15.05h-3.64v8.074c0 3.628-5.367 3.356-5.367.181V2.621v.272c0-3.175 5.368-3.447 5.368.181v7.167h3.639V2.893c0-3.175 5.368-3.357 5.368.181v19.958z" fill="red"/><path d="M62.866 6.613c-.91-1.361-1.729-1.815-3.184-2.45-.82-.363-3.276-.544-5.095.182-1.638.725-2.547 1.451-3.275 3.084-.91 1.996-.91 3.72.364 5.534 1.182 1.723 2.638 2.54 4.276 3.175 2.82 1.18 3.82 2.903 3.275 3.991-.364.726-.91 1.361-2.002 1.27-1.546 0-2.092-.998-2.638-2.268-.364-.907-1.547-1.542-3.002-.997-1.82.725-1.729 2.721-1.001 3.9 1.547 2.631 3.548 3.629 6.641 3.629 2.548 0 4.276-.998 5.823-2.994 1.91-2.54 1.637-5.896-.455-8.164-1.274-1.452-2.547-1.814-4.367-2.63-2.183-.999-2.73-2.178-2.002-3.085.91-.998 2.457-.272 3.458.635.727.635 2.001.544 2.82-.182.637-.544.91-1.905.364-2.63zm30.84 12.156c0 3.9-3.184 6.985-7.187 6.985s-7.187-3.175-7.187-6.985V6.522c0-1.451 1.183-2.721 2.638-2.721 1.456 0 2.639 1.18 2.639 2.721v12.61c0 1.088.91 1.996 2.001 1.996 1.092 0 2.002-.817 2.002-1.905v-12.7c0-1.452 1.182-2.722 2.638-2.722s2.638 1.18 2.638 2.721l-.182 12.247z" fill="red"/><path d="M9.007 5.796h-.091l-2.002 5.625H0l5.64 3.629-2.183 5.715 5.55-3.538 5.458 3.538h.091l-2.183-5.716 5.55-3.628h-6.915L9.007 5.796zm155.023 0h-.091l-2.092 5.624h-6.824l5.55 3.629-2.183 5.715h.091l5.458-3.538 5.55 3.538-2.093-5.715 5.55-3.629h-6.914l-2.002-5.624z" fill="#066AA5"/><path d="M151.658 6.159c.704 0 1.274-.569 1.274-1.27 0-.702-.57-1.27-1.274-1.27a1.271 1.271 0 100 2.54z" stroke="red" stroke-width="1.413" stroke-miterlimit="3.864"/><path d="M151.296 4.889v-.545h.273c.273 0 .455.091.455.272 0 .182-.091.273-.364.273h-.364zm.637.181c.273 0 .455-.181.455-.544 0-.454-.364-.545-.728-.545h-.637v1.724h.364v-.544h.273l.455.635h.455l-.637-.726z" fill="red"/></g><defs><clipPath id="clip0_132_9129"><path fill="#fff" transform="translate(0 .444)" d="M0 0h172.856v29.029H0z"/></clipPath></defs></svg>