<svg width="180" height="41" fill="none" xmlns="http://www.w3.org/2000/svg"><g clip-path="url(#clip0_132_9176)"><path d="M29.352 17.683v17.063c0 3.299-5.579 5.687-12.376 5.687S4.6 38.046 4.6 34.745V6.535c0-3.3 5.58-5.687 12.376-5.687 6.797 0 12.376 2.387 12.376 5.688v6.37c3.633-1.48 2.612 3.184 4.769 3.184 1.438 0 2.346-.872 2.724-2.616l1.93 2.616c-.907 1.592-2.156 2.389-3.746 2.389-2.384 0-3.52-4.89-5.677-3.527v1.366c3.33.152 4.73 1.933 4.201 5.346l-2.157-.34c.454-1.973-.227-3.186-2.044-3.641zm-12.376-6.825c6.12 0 11.014-2.095 11.014-4.322 0-2.23-4.893-4.323-11.015-4.323-6.12 0-11.013 2.094-11.013 4.323 0 2.228 4.893 4.321 11.014 4.321zM16.93 21.53c4.042 0 8.318 3.62 10.502-2.64 2.618-7.502-6.8-2.372-10.445-2.365-3.737.006-13.227-5.342-10.558 2.365 2.18 6.295 6.416 2.64 10.501 2.64z" fill="#000"/><path d="M11.406 18.035c-.464-.218-.94-.41-1.425-.576-.064.804.284 1.552 1.06 2.28.676.636 1.315.71 2 .161.225-.247.42-.527.585-.84a19.642 19.642 0 01-.864-.387.911.911 0 01-.803 1.05.907.907 0 01-1-.863.912.912 0 01.447-.826zm-2.317-.788c-.823-.107-1.472.123-1.765 1.004.681-6.484 8.174 3.072 8.97-.113 0 1.29-.658 1.517-1.62 1.284-1.003 1.7-2.658 2.334-4.966 1.901a6.36 6.36 0 001.6-.312 3.154 3.154 0 01-.889-.607C9.4 19.447 8.95 18.38 9.09 17.247z" fill="#000"/><path fill-rule="evenodd" clip-rule="evenodd" d="M21.196 18.636a13.46 13.46 0 01-.874.42c.166.313.362.595.589.845.684.549 1.322.475 2-.161.812-.763 1.155-1.546 1.048-2.394-.49.146-1.001.38-1.513.639a.908.908 0 01.425 1.294.909.909 0 01-1.675-.643zm-1.942.746c-.56.077-1.035-.058-1.379-.56 2.272.681 8.062-6.94 8.753-.57-.465-.798-1.08-1.078-1.773-1.062.16 1.154-.287 2.24-1.323 3.214a3.16 3.16 0 01-.89.608 6.356 6.356 0 001.6.311c-2.325.437-3.988-.21-4.988-1.941zm-1.833-2.268c-.34.91.34 1.365.909 1.251-.568-.114-.909-.617-.909-1.251z" fill="#000"/><path d="M16.975 8.81c2.948 0 5.337-1.018 5.337-2.274 0-1.257-2.39-2.276-5.337-2.276-2.947 0-5.336 1.019-5.336 2.276 0 1.256 2.389 2.275 5.336 2.275z" fill="#EE6344"/><path fill-rule="evenodd" clip-rule="evenodd" d="M117.147 29.654l-1.756-.18-.171.09c-.717-.18-1.243-.442-1.578-.79-.76-.625-1.139-1.091-1.139-1.4 0-.055-.06-.291-.179-.71v-.08l.089-.18c-.075 0-.249-.233-.52-.7v-.261c0-.06.203-.236.609-.53l-.089-.44c1.025-.76 1.727-1.14 2.107-1.14v.09c0 .233-.206.701-.618 1.401v.09c.124 0 .447.087.968.26l1.489-.17v.088a7.232 7.232 0 001.138-.268l.61.09c.847-.136 1.899-.663 3.157-1.58.357-.3.708-.766 1.049-1.401.293-.31.439-.603.439-.88-3.249-.701-5-1.14-5.255-1.32 0 .12-.06.18-.178.18-2.056-.495-3.252-.962-3.589-1.401-.248 0-.688-.293-1.317-.88-.152-.017-.471-.396-.96-1.14-.14 0-.287-.204-.439-.61-.233 0-.35-.294-.35-.88 0-.978.29-1.828.87-2.55a5.811 5.811 0 011.229-1.49c.276-.277.453-.568.529-.872.894-.646 1.42-.969 1.578-.969 1.318.136 2.28.37 2.887.701 1.345.716 2.018 1.39 2.018 2.019v.7h-.179v.09l.089.18-.438.081c-.191 0-.627-.233-1.31-.7-1.009.412-1.622.705-1.839.88-.049.277-.428.626-1.139 1.05 0 .097-.293.391-.878.88-.353.531-.529.852-.529.96 1.171.527 3.099 1.054 5.783 1.58 2.431.586 3.919 1.174 4.467 1.76 1.757.874 2.636 1.545 2.636 2.011h-.18c0-.152-.32-.442-.959-.871h-.18v.081c.266.718.675 1.187 1.229 1.41 0 .076.146.339.439.789-.119.016-.179.074-.179.171l.09.79c0 .446-.35.796-1.05 1.051 0 .19-.263.483-.789.88 0 .293-.469.703-1.408 1.229 0 .115-.378.465-1.138 1.052-.173.07-.26.16-.26.268h-.09l-.17-.09c0 .424-.556.833-1.668 1.23 0-.179-.06-.269-.179-.269-.189.267-.51.443-.96.53l-.529-.09h-.171a.685.685 0 00-.349.09l-.18-.09a.68.68 0 01-.349.09l-.171-.09-.09.18zm16.913-.97h-.179c-.602 0-1.012-.087-1.229-.26l-.35.09c-.091 0-.266-.117-.52-.351l-.179.082c-.406-.093-.787-.443-1.139-1.052l-.179.09h-.171c-1.226-1.01-1.838-1.682-1.838-2.02-.993-2.052-1.489-4.392-1.489-7.02-.043 0-.133-.847-.268-2.54h.089c-.119-.3-.178-.504-.178-.611.042-.354.103-.53.178-.53l-.528-2.541c.108 0 .197-.264.268-.79.233 0 .35-.06.35-.18v-.09h.089l.261.18c.124 0 .298-.176.52-.53a.64.64 0 00.268-.089v.18l.44-.09c0 .18.027.268.082.268.08-.06.227-.089.438-.089 0 .135.176.223.53.26v.09l-.09.171c.119 0 .179.06.179.18h.082c.059 0 .295-.06.707-.18h.26v.619l-.179.26.269.18-.269 1.31c.022.12.081.18.179.18a19.613 19.613 0 00-.089 1.49v.09l.089.871h-.089l.089.18v.09c0 .94.086 2.633.26 5.082h-.089c.06.135.179.605.358 1.409l-.09.44c.115.19.171.363.171.521l-.081.179c.288 0 .431.293.431.88.098 0 .217.172.358.521.288 0 .987-.7 2.099-2.101.645-1.092 1.288-2.966 1.928-5.62v-1.23l-.091-.61h.091l-.091-.172a.7.7 0 01.091-.358c-.174-2.292-.26-3.665-.26-4.122a2.64 2.64 0 01.788-.7v-.26h.171v.17h.261c.298-.407.56-.61.788-.61l.09.17.18-.08h.17v.26h.09l.438-.09.529.35v.27h.35v-.18c.115.06.201.09.261.09a.627.627 0 01.26-.09c.411.38.617.847.617 1.4-.059 0-.089.031-.089.09.115.023.172.082.172.18-.174.136-.261.34-.261.61h-.09l-.17-.529c-.12.021-.179.082-.179.179v1.23c0 .554-.03 1.228-.09 2.02l.09.431c-.363 2.367-.713 3.948-1.05 4.74-.06 0-.089.03-.089.09v.79l.09.872c-.234 0-.351.236-.351.709h-.088c0 .19.116.833.349 1.93h-.089l.089.171v.44a.69.69 0 01-.089.35.648.648 0 01.089.26c-.13 0-.276-.29-.439-.87h-.082c0 .053-.029.08-.089.08.114.62.261 1.235.439 1.849a.639.639 0 00-.09.26c-.092 0-.295-.613-.609-1.84h-.089l-.091.171v.09h.18v.529h.171c0 .06-.031.09-.091.09l.091.17v.261l-.171-.08c0 .053-.03.08-.089.08-.18-.347-.386-.99-.619-1.93h-.171c-.081 0-.197.264-.35.79-.113 0-.406.323-.878.97l.089.17c-.157.195-.566.372-1.228.53-.407.337-.609.57-.609.7h-.001zm5.165 1.41h-.26c-.06-.43-.119-.694-.179-.791.06-.097.09-.244.09-.44h.178v.35l-.089.172a.64.64 0 00.26.089v.09l-.171.26c.114.022.171.083.171.18v.09zm20.533 1.822l-.35-.17a.683.683 0 01-.268.082l-.351-.082a.676.676 0 01-.26.082c0-.152-.206-.27-.618-.351a1.882 1.882 0 00-.699-.87c-.348-.631-.611-1.508-.79-2.632l.089-.18a.64.64 0 01-.089-.26h.089c-.103-.19-.219-1.01-.35-2.46h.091c-.109-.352-.402-3.1-.879-8.241-.06 0-.147-.47-.26-1.409 0-.06.029-.148.089-.261 0-.608-.353-1.282-1.057-2.02 0-.038-.147-.448-.44-1.23.066-.26.272-.464.618-.61h.09v.17c.412-.114.645-.17.7-.17h.089v.529h.171l-.089.17v.09c.118 0 .178.03.178.09l.7-.44h.089v.09a.593.593 0 00-.09.26c.06 0 .091.03.091.09.114-.06.2-.09.259-.09.511.033 1.037.5 1.579 1.402 0 .385.203.97.61 1.759.412 3.752.617 5.799.617 6.14h.091c1.329-.179 2.321-.269 2.977-.269h.349c.527 0 .79-.32.79-.96h.09l-.09-.18v-.081c.293 0 .585-1.757.878-5.27-.119 0-.178-.057-.178-.17v-.53c.314 0 .547-.087.699-.26h.179l.082.439c-.055 0-.082.027-.082.082l.17.09c0-.06.031-.091.091-.091l-.091-.17v-.09c.386 0 .619-.176.7-.529h.18c0 .065.029.155.089.268l.171-.089h.089c0 .195.03.342.09.44l.17-.09c.12.017.179.076.179.179v.082h-.179v.09h.269l.081-.172a.684.684 0 01-.081-.268h.171c.352.31.529.572.529.79h.26l.178-.09-.089-.171c.017-.12.074-.18.171-.18.434 0 .67.09.708.27v.17c0 .12-.089.18-.269.18.234.608.35.988.35 1.14-.288 1.162-.431 2.622-.431 4.382l.171.09c0-.06.03-.09.09-.09 0 .119.029.178.089.178l.35-.178v.09c0 .173-.233.29-.7.35v.53h.61l1.139-.262c0 .055.03.082.089.082 0-.114.234-.201.7-.261v.09c0 .076-.379.28-1.139.61 0 .234-.526.497-1.578.79v.18l.44-.09c.059 0 .089.03.089.09a.631.631 0 01.26-.09h.179v.09c-.705.086-1.057.203-1.057.35 0 .173-.03.26-.09.26l.09.18c-.115.494-.172.784-.172.87l.083.531c0 .537-.174 1.88-.521 4.031h-.179v-.17h-.082v1.14h-.268l-.35-.262c0 .099-.146.362-.439.79 0 .625-.173.975-.521 1.051 0 .173-.293.26-.879.26h-.089c0-.172-.087-.26-.261-.26h-.089v-.7a.65.65 0 00-.09-.35c0-.06.03-.09.09-.09 0-.12-.029-.18-.09-.18.137-2.22.253-3.33.351-3.33l-.082-.18c.115-.402.171-.751.171-1.05v-.7l.089-.44c-.14-.114-.257-.171-.35-.171-.862.173-1.448.317-1.756.431v.53c-.152 0-.356.322-.61.969l-.79 1.75a.627.627 0 01-.26.09v.701c0 .14-.146.405-.439.79 0 .347-.06.522-.179.522l.089.179c-.466.499-.7.792-.7.88v.44l.091.17c-.196 0-.313.116-.35.35zm4.205-11.578c.276-.884.48-1.354.61-1.409a2.026 2.026 0 00-.26-.61l.171-.261h-.082c-.097 0-.216.203-.358.61l.09.44c-.027.233-.114.35-.26.35v.09l.089.171h-.179v.44c.022.12.082.179.179.179zm2.189 7.192c.14 0 .228-.294.26-.88a.667.667 0 01-.082-.26h.171v-.35c0-.12-.057-.18-.171-.18l.082-.44v-.871c0-.06.029-.09.089-.09l-.089-.18a.63.63 0 01.089-.26l-.171-.79c.054 0 .082-.03.082-.089h-.171v.619a.683.683 0 01-.09.35c0 .06.03.09.09.09l-.09.431v.18l.09.61h-.09l.09.18v.17c0 .12-.06.18-.179.18.119.19.179.366.179.53v.43l-.09.62h.001zm-.611.79c.115-.44.171-.704.171-.79 0-.06-.03-.09-.09-.09l.091-.44v-.96l-.091-1.06h.091l-.091-.17v-.611c0-.06.031-.09.091-.09-.06-.076-.091-.283-.091-.62-.113.023-.17.083-.17.18v.61c0 .338-.03.545-.09.62.06.315.091.578.091.791v2.63h.088zm-3.945-2.2c0-.19.203-.597.609-1.22l.441-.88v-.18h-.09c-.336.375-.599.845-.789 1.41-.038 0-.155.146-.35.44v.43h.179zm-2.018 1.41c.348-.38.99-1.347 1.928-2.9 0-.054.03-.081.09-.081v.26h.171c0-.244.06-.537.179-.879h-.09v.09c-.059 0-.089-.03-.089-.09-.96.352-1.514.529-1.66.529-.395-.173-.629-.26-.7-.26v.26c0 .13.028.247.082.35 0 .06-.027.09-.082.09.055.266.112 1.143.171 2.631zm13.832 3.788h-.52c0-.114-.176-.231-.529-.35-.879-.934-1.317-3.361-1.317-7.282-.055 0-.083-.115-.083-.35 0-.06.028-.09.083-.09l-.083-.44v-.79c0-.054.028-.08.083-.08a.689.689 0 01-.083-.27l.083-2.101h.089c0-.06-.03-.09-.089-.09.075-.792.135-1.26.178-1.4 0-.06-.029-.09-.09-.09 0-.06.03-.147.09-.26.06-1.477.089-2.648.089-3.51 0-.956-.116-2.186-.349-3.69.255-.467.518-.701.789-.701.336 0 .54.147.61.44.428.098.808.391 1.139.88 0 .157.06.33.179.521l.171-.082h.089c.114.799.171 1.237.171 1.312h.179v-.17c.249 0 .396.406.439 1.22.082 0 .198.41.35 1.23.059 0 .09.03.09.09s-.031.09-.091.09l.261 1.84c-.053.26-.083.524-.089.79v.96a.762.762 0 01-.082.36.63.63 0 01.082.26c-.211 2.16-.385 3.242-.521 3.242l.09.618v1.58c0 .13-.03.248-.09.351a.683.683 0 01.09.35v.09c0 .114-.06.171-.179.171 0-.06-.03-.09-.09-.09v.09l.179.26v.18l-.35 2.81-.439.7c-.194 0-.371.086-.529.26 0 .06.03.09.09.09l-.09.88v.17zm-28.269-18.004a30.528 30.528 0 012.286-.759h.078v.149c-.255.014-.383.066-.383.156-.458.028-.687.13-.687.305h-.226c-.169 0-.346.075-.531.226h-.537v-.077zm8.709 11.588h.078c0-.108-.076-.262-.226-.461v-.226l.07-.157-.452-.764a15.471 15.471 0 00-2.902-2.289c-1.062-.628-1.595-.986-1.599-1.07-.42-.18-1.54-.865-3.356-2.055-.995-.562-1.679-1.148-2.052-1.758.024-.203.099-.304.226-.304 0-.34 1.555-.891 2.877-1.434.764-.208 1.146-.386 1.146-.532 1.317-.44 2.053-.72 2.208-.843.765-.17 1.147-.297 1.147-.383.113 0 .215.18.304.54l-.078.148c0 .104.076.156.227.156v.077c-.151 0-.227.076-.227.227.052.256.206.586.461.992h.226l-.078-.156h.227c.222-.661.401-.992.537-.992v-.148c0-.251.076-.506.227-.766a.593.593 0 01-.078-.305c-.024-.174-.429-.504-1.218-.991l-1.294-.383h-.078c-.349 0-.729.078-1.14.234-1.429.302-2.345.607-2.746.914l-.156-.078h-.148c-.26.203-.591.33-.991.383l-2.668 1.219c-1.1.566-1.711 1.152-1.834 1.756 0 .076.128.407.382.992l-.077.157c0 .042.101.269.305.68 0 .137.126.29.382.46 0 .147.228.452.686.914.571.346 1.003.677 1.295.992.51.09.765.218.765.383 1 .548 1.559.905 1.677 1.07a41.68 41.68 0 013.963 2.516c.864.444 1.296.75 1.296.921-.525.42-2.075.751-4.65.992 0-.052-.027-.078-.079-.078a.592.592 0 01-.304.078h-2.972c-.811 0-1.218.305-1.218.914v.227c.194 0 .321.18.383.538l.452.305c.218.151.371.227.461.227.288.203.49.304.609.304 0 .26.483.44 1.45.54v.07l-.078.156c.416 0 .67.05.766.148h.225l.46-.07.148.071c.638-.05 1.273-.126 1.904-.227 0 .052.027.078.079.078a13.165 13.165 0 003.05-.766c.326-.075.606-.405.842-.99h.531l.156-.533v-.233c0-.119.627-1.052.472-1.387h-.001z" fill="#000"/><path d="M73.286 21.07l.024-.016c.008.047.038.067.086.058-.039-.201.034-.516.22-.946.037-.099.037-.236.004-.413l-.03-.154-.079.015c-.067.014-.15.413-.248 1.196l-.237.048.061.316.08-.017.039-.027c-.003.171-.062.543-.18 1.113l.013.495.014.073.08-.017c.115-1.076.17-1.636.162-1.674l-.009-.05zm1.147-6.14c.01-.22.055-.338.137-.354l.079-.017a.643.643 0 00.234.366l.02.1a.313.313 0 01.092-.04l.017.081c-.09.528-.15 1.06-.18 1.594l.08-.016c.119-.023.194-.476.223-1.358.31-.063.502-.596.573-1.598l.158-.032c.022.113-.015.478-.11 1.093.128-.027.225.063.289.27l-.003.413c.083.146.151.214.204.203l.043 1.473c.032.162.124.228.276.197l.014.074c.038 1.88-.026 4.06-.192 6.54-.172.92-.505 2.25-1.002 3.99-.382 1.064-.599 1.603-.651 1.613l-.437.248c-.023-.117-.168-.17-.433-.157.024.128-.217.257-.723.39a1.768 1.768 0 00-.833-.574c-.014-.073-.107-.136-.281-.187l-.072.015.03.16c-.44-.328-.667-.529-.68-.602-1.041-1.513-1.63-2.629-1.768-3.35a24.821 24.821 0 00-.656-2.175l.05-.17-.432-1.395.079-.017-.11-.145-.274-1.426-.222-.773-.316.063c.024.127-.028.41-.157.85l.157-.032c-.039.624-.045 1.009-.017 1.157.048-.01.078.012.088.066-.168.033-.2.424-.096 1.172l.155.382c-.026.3-.089.532-.187.695.01.053.041.075.095.065.038.776.027 1.272-.036 1.488a.59.59 0 01.117.221c-.154.338-.244 1.122-.272 2.355-.051.56-.103.846-.156.856l-.23.046c-.112.63-.288.967-.528 1.016-.117-.195-.214-.286-.29-.27l-.158.032-.374.151c-.045-.235-.307-.346-.786-.33l.003-.413c-.05-.265-.179-.377-.385-.335l-.091-.479c-.05-.26-.204-.363-.462-.311-.23-1.196-.196-3.261.102-6.194-.01-.053-.042-.075-.094-.064l-.002-.825.174.05-.092-.479c.176-.036.234-.294.171-.776l-.105-.551c.12-.025.16-.224.124-.598l-.134-.31c.017-.165.053-.254.106-.265-.01-.054-.042-.076-.095-.065a5.384 5.384 0 01.025-1.151.597.597 0 01-.125-.226.603.603 0 01.216-.12c-.078-.122-.18-.377-.303-.765.066-.014.14-.193.217-.54a.586.586 0 01-.124-.22l.078-.016-.11-.146c.054-1.405-.002-2.958-.169-4.656a1.29 1.29 0 01.588-.279l.23-.046c.051-.01.084.012.093.066l.143-.114c.575.221.901.54.981.957l.142-.113.23-.046.016.08-.043.17.768-.155.945.306.102.14-.23.047.016.08c.21.534.528 1.073.95 1.62.668.96 1.116 2.048 1.35 3.265l.213 1.11c.157-.032.47.756.936 2.363l.077.398c.01.053-.01.085-.064.096l.11.139c.046.245.02.663-.082 1.253.272.302.45.677.535 1.122l.033.162.15-.03c.105-.022.168-.391.19-1.108l.079-.016-.11-.145-.045-.236c.21-.435.262-1.707.155-3.82.09-.258.152-.761.186-1.512.24-1.088.479-1.795.72-2.123l.078-.017.031.162-.049.17.173.05.079-.017-.015-.08-.158.032.05-.17-.016-.082c-.01-.053-.041-.075-.095-.064a.646.646 0 00.018-.332l.15-.031.006.412c.167-.034.307-.419.42-1.154l-.017-.081.167.05-.015-.08c-.053.01-.084-.012-.095-.066.082-.016.177-.088.286-.217.01.049.038.068.086.058.242-.705.517-1.089.823-1.15l.08-.017.06.317-.544.934-.167-.05-.236.048.015.08.309-.062.03.162c-.3.371-.445.592-.432.66-.173.784-.373 2.525-.6 5.224l.014.081.072-.014c.204-.545.308-1.254.316-2.127l.254-1.204.085-.018zm.099.16l.043.225.079-.016-.04-.203a.568.568 0 00-.082-.007zm7.618 13.526c-.028.39-.12.982-.276 1.776l-.138.7c-.08.407-.175.6-.286.577l-.085.896-.103.522c-.313.974-.695 1.565-1.148 1.77-.121.097-.338.17-.646.221l-.037.014c-.242.203-.07.148-.268.35-.067.03-.22.046-.456.049v.001c-.143.066-.325.081-.547.047-.264.32-.468.512-.611.575l-.864-.009c-.785.094-1.763.112-2.933.053-.9-.448-1.966-.78-3.199-.998-.613-.48-1.159-.72-1.638-.722-.115-.27-.935-.846-2.46-1.73-.508-.292-.814-.414-.918-.367-.384-.414-.65-.587-.799-.52l-.14-.327c1.455.584 2.236.852 2.345.803l-.035-.084-.73-.36-.034-.076.083-.037c.015.036.477.221 1.39.558.91.335 1.68.504 2.306.506.508.098.834.114.977.05l.081-.038c.09-.04.118-.116.088-.229-2.144-.553-3.282-.986-3.416-1.3l-.12.155c-.164.074-.328-.08-.49-.46l-.156.07.068.16-.082.037a2.819 2.819 0 00-.361-.617l.163-.075.036.084c2.785 1.018 4.7 1.555 5.746 1.61 0 0 2.936.662 4.3-.137 2.458-1.44 1.827-11.2 1.827-11.2l.192-2.79c.027-1.965-.155-4.07-.546-6.314-.188-.501-.945-2.474-.865-2.88.126-.279.239-.408.34-.388l.255.053c.022-.114.062-.165.12-.153l.429.089.018-.09.578.212-.016.082c-.17-.035-.266.007-.289.126l.192-.053.08.016-.018.09-.218.226c-.016.087.05.19.204.313l.174.036c.03-.158.138-.257.323-.298l.016-.081.341.07c-.018.092.296.459.941 1.1.51.636.982 1.555 1.418 2.758.42 1.786.591 2.886.51 3.298l-.087-.019c.102.993.17 2.162.205 3.508a.651.651 0 00-.14.25c.174.036.22.563.135 1.579l-.12.153-.107 2.358c-.197.41-.303.66-.32.747l-.017.547.08.017.192-.054-.035.179-.121.153c.058.012.082.048.07.108-.058-.012-.093.011-.105.071l.171.036c.738-1.072 1.27-1.938 1.6-2.595 0-.127.175-.334.527-.622l1.304-2.949c-.06-.033-.09-.243-.09-.63.412-.891.672-1.337.786-1.337.427-.953 1.126-2.982 2.1-6.087l.785-1.877a.667.667 0 01-.09-.267c.216 0 .536-.268.956-.805h.357l.081.357h.09c.118 0 .177-.06.177-.183l.868.091h.177c0 .178.057.266.17.266h.09c0-.177.059-.265.178-.265h.09c.113.016.17.077.17.182l.177-.09h.082v.356h.178c.113 0 .17-.06.17-.182v-.084l-.081-.182.438-.092h.17l-.09.183v.266c.119 0 .179.119.179.357h.696c0 .061-.03.09-.089.09.028.3.116.45.268.45v.531c.032.637.205 1.085.519 1.345 0 .028.088.327.266.898l.17-.092h.09l.348 1.344c.173 0 .26.178.26.533-.06 0-.09.03-.09.09l.179.092v-.09c-.06 0-.09-.03-.09-.092h.268c.005.337.178.994.518 1.969-.06.326-.089.564-.089.713l.178.092c0-.061.03-.091.09-.091 0 .121.173.509.518 1.162 1.8-.177 2.877-.266 3.233-.266v.183h-.179l.089.44-1.742.54.082.182c0 .283-.26.46-.778.532v.091h.17v.183l-.17.266v.174a77.68 77.68 0 011.134 4.028c0 .094.057.213.17.357v.091c0 .061-.029.09-.089.09l.786 2.327c-.054 0-.08.03-.08.091.247 0 .507.922.777 2.766-.195 0-.337.149-.429.448h-.527c0 .183-.146.274-.438.274-.205-.205-.729-.445-1.571-.722 0-.094-.435-.272-1.304-.531 0-.067-.177-.217-.527-.449v-.183l.607.09h.268c.113 0 .17-.057.17-.172 0-.19-.551-1.651-1.653-4.385 0-.366-.292-1.29-.876-2.774-1.117.36-2.337.628-3.661.805 0-.06-.03-.09-.089-.09 0 .176-.175.295-.527.356-.988.232-1.482.561-1.482.988-.367 1.196-.717 2.029-1.046 2.5v.274c.173 0 .26.058.26.174v.092l-.17-.091h-.179c-.173.464-.259.763-.259.896l-.179-.09c0 .154-.175.334-.526.538 0 .111-.318.648-.955 1.612l-.179.082h-.17l-.349-.265h-.088c-.114.017-.17.078-.17.183a.655.655 0 01.08.265l-.17.092c-.076-.061-.222-.091-.438-.091 0 .177-.115.265-.348.265l-1.401-.98c-.36 0-.709-.431-1.05-1.294zm.303-2.486l.004-.005-.01-.003a.04.04 0 01.006.008zM53.02 29.564c-1.048-.06-1.572-.298-1.572-.713-.145 0-.291-.062-.438-.183 0 .061-.029.09-.089.09 0-.071-.232-.308-.696-.713 0-.255-.232-.523-.697-.805-.535-.322-1.261-1.603-2.18-3.846-.19-.274-.304-.303-.34-.086.055.455.081.975.081 1.562 0 .088-.026.132-.08.132l.08.183v.54c0 .116-.056.413-.17.889l.17-.083c.06.615.09.972.09 1.072h-.09l.09.173v.631l.09.45c-.12 0-.18.088-.18.265 0 .05.03.287.09.715l-.956.357c-.351 0-.526-.297-.526-.89h-.179c-.05.205-.078.414-.081.624h-.09c0-.377-.29-.615-.875-.715 0-.398-.145-.877-.437-1.437a.622.622 0 01-.259.092v.09h.178v.092c0 .056-.03.084-.089.084l.089.182v.183c-.47-.432-.705-1.237-.705-2.416.119-1.23.179-2.11.179-2.642a6.85 6.85 0 00-.179-1.652c0-.055.03-.293.09-.714 0-.078-.03-.377-.09-.897l.09-.449c-.06-.099-.09-.249-.09-.448h.09c-.114-.316-.2-.76-.26-1.336h.09c-.719-3.761-1.359-5.64-1.92-5.64l-.179-.623v-.09c.017-.123.075-.183.178-.183h.08l.18.09c0-.06.03-.09.088-.09l-.089-.175c.017-.122.073-.183.17-.183a.621.621 0 00.267.091c0-.088.087-.177.26-.265.351.249.527.518.527.805.168 0 .43-.149.786-.448l.245-.008c0 .237.232.356.697.356v.183h-.178v.082c.313 0 .545.092.696.275l-.081-.183v-.09h.17c0 .104.176.373.527.805 1.042 2.63 4.048 7.045 5.507 12.526.123 0 .24.268.348.805.584-.647 1.107-2.646 1.572-5.995 0-.056-.03-.083-.09-.083.104-1.435.25-2.152.439-2.152 0 .068.03.156.089.266-.119.238-.18.568-.18.989a.72.72 0 00.09.357c-.059.692-.145 1.229-.259 1.61.06.416.146.623.26.623h.089c0-.237.057-.357.17-.357v-.888c.065 0 .154-.03.267-.091-.06-.127-.119-.396-.178-.806.114-.061.2-.09.26-.09l-.081-.45c.053 0 .08-.03.08-.091h-.17v-.174c.232 0 .348-.687.348-2.06.081-.404.168-.672.26-.806-.114 0-.17-.088-.17-.265v-.988h-.09v-.083c0-.062.03-.092.09-.092l-.09-.182c.136-.133.251-.52.349-1.163l-.09-.174c.12-.222.179-.46.179-.714l-.089-.184h.178v-.091h-.178v-.174c.258-.59.683-1.09 1.223-1.438.524.101.786.22.786.358v.183c-.648.266-1.172.772-1.572 1.52l.089.183-.268 1.967h.18l-.18.266c0 .133.03.252.09.357l-.17.449.08.448-.08.174.08.54v.266c-.112.581-.17.91-.17.988 0 .133.03.252.09.357-.119.3-.208.449-.268.449l.09.175c0 .298-.058.448-.17.448l.08.182-.17.266c.06.326.09.565.09.714-.06 0-.09.03-.09.09h.17c0-.596.147-1.164.438-1.7l-.09-.532v-.091c.24 0 .358-.24.358-.715h.08l-.08-.182c.135-.194.221-.462.26-.806-.06-.1-.09-.25-.09-.449h.09l-.09-.174.178-.274v-.083a.685.685 0 00-.089-.357c.113-.42.2-.632.258-.632-.059-.077-.088-.226-.088-.447.06 0 .088-.029.088-.083l-.088-.366c.081-.271.197-.418.348-.44l-.08-.183a.771.771 0 00.08-.357h.178a26.62 26.62 0 00-.088 1.786v.63c-.173 0-.26.058-.26.175.173 0 .26.299.26.897h.089c.232-.46.348-.729.348-.806a.655.655 0 01-.09-.265l.09-.898a.655.655 0 01-.09-.265c.18 0 .268-.12.268-.357h.17v.082c-.232 1.23-.348 3.26-.348 6.088h-.09c0 .061.03.091.09.091l-.09.45v.172l.349-.173v.083c-.114 1.212-.375 3.062-.786 5.547 0 .715-.435 1.7-1.304 2.957 0 .365-.524.573-1.572.622zm7.696-2.088h-.518c0-.115-.176-.235-.527-.357-.875-.952-1.313-3.426-1.313-7.424-.054 0-.08-.118-.08-.357 0-.06.026-.091.08-.091l-.08-.449v-.806c0-.055.026-.082.08-.082a.708.708 0 01-.08-.275l.08-2.142h.09c0-.061-.03-.091-.09-.091.076-.808.135-1.285.179-1.43 0-.06-.03-.09-.09-.09 0-.062.03-.15.09-.266a95.93 95.93 0 00.089-3.58c0-.973-.116-2.228-.349-3.76.254-.478.516-.716.786-.716.335 0 .538.15.608.449.426.1.804.399 1.134.897 0 .16.06.338.178.531l.17-.082h.09c.113.814.17 1.259.17 1.336h.178v-.174c.248 0 .395.415.438 1.246.08 0 .197.418.348 1.253.059 0 .089.03.089.092 0 .06-.03.091-.09.091l.26 1.877c-.06.322-.089.59-.089.806v.98a.789.789 0 01-.081.365.651.651 0 01.081.266c-.21 2.203-.383 3.305-.518 3.305l.088.631v1.611a.71.71 0 01-.088.358c.06.109.09.232.088.357v.09c0 .117-.059.175-.177.175 0-.06-.03-.09-.09-.09v.09l.178.266v.183l-.348 2.865-.438.714c-.194 0-.37.088-.526.266 0 .06.03.09.09.09l-.09.898v.174zm13.918-13.129l-.08.017a.58.58 0 00-.123-.22c.159-.032.222-.128.19-.29l.072-.015.047.243c-.1.02-.136.11-.106.265zm-21.276 3.258h-.089c-.08 0-.167-.09-.26-.267v-.173c0-.062.03-.092.09-.092l-.09-.182c.12-.194.18-.372.18-.532h.169v.082l-.089.45c.06.232.089.47.089.714zm35.47-2.166c.125-.028.241-.177.35-.448a.77.77 0 01-.082-.358c.135 0 .397-.507.787-1.52l-.09-.183v-.09c.32-.371.492-.878.52-1.52h-.35v.183h.179c-.875 1.898-1.313 3.21-1.313 3.936zM72.94 25.37c.105-.277.158-.56.158-.85.1-.02.223-.348.37-.984l-.09-.47-.08.016.046.235-.15.03-.032-.161.106-.266-.016-.08c-.104.131-.196.206-.277.223a.567.567 0 01.123.22l-.342 1.55-.08.017.076.396c.035.1.097.142.188.123zm18.349-4.997c.296 0 1.258-.237 2.883-.714v-.09c0-.128-.407-1.41-1.223-3.846v-.082c-.275.37-.567 1.025-.875 1.967-.13.825-.362 1.627-.696 2.408h-.09v.357zm7.808 4.526v-.091c0-.073-.03-.369-.089-.89l.09-.448c-.06 0-.09-.03-.09-.09l-.17.09h-.178c0-.42-.116-.63-.348-.63.35 1.372.613 2.059.785 2.059z" fill="#000"/></g><defs><clipPath id="clip0_132_9176"><path fill="#fff" transform="translate(0 .847)" d="M0 0h179.454v39.585H0z"/></clipPath></defs></svg>