<svg width="71" height="70" fill="none" xmlns="http://www.w3.org/2000/svg"><g clip-path="url(#clip0_132_9101)" fill="#000"><path d="M35.6.493C16.593.493 1.092 15.993 1.092 35c0 19.008 15.5 34.509 34.508 34.509 19.008.001 34.51-15.5 34.51-34.509C70.096 15.994 54.595.493 35.6.493zm0 65.032C18.784 65.525 5.077 51.817 5.077 35c0-16.816 13.707-30.523 30.523-30.523S66.124 18.184 66.124 35 52.403 65.525 35.6 65.525z"/><path d="M25.717 58.323C16.645 54.458 10.27 45.452 10.27 34.998a25.1 25.1 0 011.182-7.637l14.265 30.962zm16.91 1.01c-2.232.65-4.597.996-7.04.996-2.445 0-4.796-.346-7.027-.997l7.026-16.404 7.04 16.404zm17.12-31.959a24.95 24.95 0 011.183 7.624c0 10.454-6.39 19.46-15.448 23.312l14.266-30.936z"/><path d="M48.364 13.135a25.658 25.658 0 017.85 7.173L43.595 47.126l-4.25-10.241h-7.492l-4.25 10.24-12.619-26.817a25.493 25.493 0 017.85-7.173l8.847 20.655h7.837l8.846-20.655z"/><path d="M35.6 9.67a25.3 25.3 0 017.133 1.023L35.6 27.867l-7.133-17.174A25.23 25.23 0 0135.6 9.67z"/></g><defs><clipPath id="clip0_132_9101"><path fill="#fff" transform="translate(.627)" d="M0 0h70v70H0z"/></clipPath></defs></svg>