<svg width="16" height="16" viewBox="0 0 16 16" fill="none" xmlns="http://www.w3.org/2000/svg">
<path d="M9.20113 6.79917C8.56405 6.1624 7.70014 5.80469 6.79935 5.80469C5.89857 5.80469 5.03465 6.1624 4.39757 6.79917L1.99501 9.20078C1.35792 9.83783 1 10.7018 1 11.6028C1 12.5037 1.35792 13.3677 1.99501 14.0048C2.63211 14.6418 3.49619 14.9997 4.39718 14.9997C5.29817 14.9997 6.16226 14.6418 6.79935 14.0048L8.00024 12.804" stroke="#0E0F11" stroke-width="1.54545" stroke-linecap="round" stroke-linejoin="round"/>
<path d="M6.79883 9.20053C7.43591 9.8373 8.29982 10.195 9.20061 10.195C10.1014 10.195 10.9653 9.8373 11.6024 9.20053L14.0049 6.79893C14.642 6.16188 15 5.29785 15 4.39693C15 3.49601 14.642 2.63199 14.0049 1.99494C13.3679 1.35789 12.5038 1 11.6028 1C10.7018 1 9.8377 1.35789 9.20061 1.99494L7.99972 3.19574" stroke="#0E0F11" stroke-width="1.54545" stroke-linecap="round" stroke-linejoin="round"/>
</svg>
