<svg width="14" height="24" viewBox="0 0 14 24" fill="none" xmlns="http://www.w3.org/2000/svg">
<path d="M9.5539 17.4423C10.8425 17.1503 12.0723 16.646 13.1921 15.9505C13.5868 15.6868 13.8624 15.2814 13.9606 14.8202C14.0588 14.3589 13.9718 13.878 13.7181 13.4791C13.4644 13.0801 13.0639 12.7946 12.6012 12.6827C12.1386 12.5709 11.6502 12.6416 11.2392 12.8798C9.97493 13.661 8.51444 14.0752 7.02401 14.0752C5.53357 14.0752 4.07308 13.661 2.80879 12.8798C2.39835 12.6237 1.90208 12.539 1.42868 12.6443C0.955282 12.7496 0.543337 13.0363 0.283067 13.4416V13.4453C0.15448 13.6466 0.0672866 13.871 0.0264854 14.1057C-0.0143158 14.3404 -0.00792291 14.5807 0.0452976 14.813C0.0985182 15.0452 0.19752 15.2648 0.336629 15.4591C0.475738 15.6534 0.65222 15.8186 0.855958 15.9452L0.858989 15.949C1.97583 16.6447 3.20364 17.1481 4.49033 17.4378L0.98933 20.9023C0.646535 21.2353 0.451159 21.6893 0.446045 22.1647C0.440931 22.6401 0.626497 23.0981 0.96205 23.4382L0.993119 23.469C1.34095 23.8237 1.81078 24 2.28061 24C2.75044 24 3.21951 23.8237 3.56658 23.469L7.02439 20.066L10.4617 23.4735C11.1922 24.1643 12.3524 24.1485 13.0557 23.4262C13.3857 23.0881 13.5701 22.6363 13.5701 22.1661C13.5701 21.696 13.3857 21.2442 13.0557 20.9061L9.5539 17.4423ZM7.02363 12.3878C8.68288 12.3868 10.2739 11.7341 11.4475 10.5732C12.621 9.41216 13.2812 7.83768 13.283 6.19539C13.283 2.78117 10.4731 0 7.02363 0C3.57416 0 0.764265 2.78117 0.764265 6.19539C0.76607 7.83803 1.42609 9.41289 2.59954 10.5745C3.77298 11.7361 5.36403 12.3895 7.02363 12.3915V12.3878ZM7.02363 3.63323C7.71005 3.63362 8.36824 3.90369 8.85361 4.38411C9.33899 4.86452 9.61185 5.51598 9.61225 6.19539C9.61205 6.87534 9.33943 7.52746 8.85416 8.00875C8.3689 8.49004 7.7106 8.76121 7.02363 8.7628C6.33637 8.76101 5.6778 8.4899 5.19198 8.00876C4.70615 7.52762 4.43262 6.87562 4.43122 6.19539C4.43362 5.5156 4.70752 4.86432 5.19317 4.38364C5.67882 3.90295 6.33682 3.63185 7.02363 3.62948V3.63323Z" fill="#0E0F11"/>
</svg>
