<svg width="26" height="16" viewBox="0 0 26 16" fill="none" xmlns="http://www.w3.org/2000/svg">
<path fill-rule="evenodd" clip-rule="evenodd" d="M25.4036 1.08343C25.5835 0.459429 25.4036 0 24.5424 0H21.6987C20.9751 0 20.6414 0.396571 20.4605 0.834286C20.4605 0.834286 19.0143 4.48686 16.9657 6.85943C16.3027 7.54743 16.0016 7.76571 15.6398 7.76571C15.4588 7.76571 15.1869 7.54743 15.1869 6.92229V1.08343C15.1869 0.333714 14.9876 0 14.3853 0H9.91337C9.46163 0 9.18972 0.347429 9.18972 0.677714C9.18972 1.38743 10.2145 1.552 10.3196 3.54971V7.89029C10.3196 8.84229 10.1539 9.01486 9.79204 9.01486C8.8279 9.01486 6.48253 5.34514 5.09048 1.14629C4.82073 0.329143 4.54774 0 3.82084 0H0.97498C0.162497 0 0 0.396571 0 0.834286C0 1.61371 0.964146 5.48571 4.49032 10.6069C6.84111 14.104 10.1506 16 13.1655 16C14.9735 16 15.1967 15.5794 15.1967 14.8537V12.2103C15.1967 11.368 15.3678 11.2 15.9409 11.2C16.3634 11.2 17.086 11.4194 18.7738 13.1051C20.7021 15.104 21.0195 16 22.105 16H24.9486C25.7611 16 26.1685 15.5794 25.9345 14.7474C25.6766 13.92 24.7558 12.7189 23.5349 11.2937C22.8719 10.4823 21.8775 9.608 21.5752 9.17029C21.1538 8.60914 21.2741 8.35886 21.5752 7.85943C21.5752 7.85943 25.0418 2.80114 25.4025 1.08343H25.4036Z" fill="#0E0F11"/>
</svg>
