<svg width="27" height="19" viewBox="0 0 27 19" fill="none" xmlns="http://www.w3.org/2000/svg">
<path d="M26.4346 2.83046C26.2818 2.28516 25.984 1.79148 25.573 1.4019C25.1504 1.00033 24.6324 0.713081 24.068 0.567261C21.9555 0.0104607 13.4921 0.0104608 13.4921 0.0104608C9.96385 -0.0296821 6.43644 0.146876 2.9298 0.539139C2.36534 0.695733 1.84833 0.989402 1.42475 1.39402C1.00856 1.79447 0.707099 2.28828 0.54962 2.82933C0.171326 4.86727 -0.0124755 6.93654 0.000694238 9.00925C-0.0128039 11.0801 0.170546 13.1487 0.54962 15.1892C0.703725 15.728 1.00406 16.2195 1.42138 16.6166C1.8387 17.0137 2.35838 17.3005 2.9298 17.4524C5.07039 18.008 13.4921 18.008 13.4921 18.008C17.0249 18.0482 20.5568 17.8717 24.068 17.4794C24.6324 17.3335 25.1504 17.0463 25.573 16.6447C25.9839 16.2552 26.2813 15.7615 26.4335 15.2162C26.8217 13.179 27.0104 11.1089 26.9971 9.03512C27.0263 6.95258 26.8378 4.87269 26.4346 2.82933V2.83046ZM10.8015 12.8607V5.15889L17.843 9.01038L10.8015 12.8607Z" fill="#0E0F11"/>
</svg>
