<svg width="149" height="38" viewBox="0 0 149 38" fill="none" xmlns="http://www.w3.org/2000/svg">
<path d="M100.679 14.5477H101.956L104.21 5.70807L106.45 14.5477H107.728L111.411 3.21484H110.119L107.151 12.2811L104.856 3.21484H103.578L101.256 12.2678L98.3012 3.21484H97.0095L100.679 14.521V14.5477Z" fill="#0E0F11"/>
<path d="M119.441 4.41479V3.21484H112.625V14.5477H119.564V13.3477H113.862V9.48123H119.317V8.28129H113.862V4.41479H119.441Z" fill="#0E0F11"/>
<path d="M121.14 14.5477H126.004C127.928 14.5477 129.302 13.2277 129.302 11.3745C129.302 10.1479 128.546 9.18791 127.337 8.7346C128.258 8.26795 128.78 7.40133 128.78 6.22804C128.78 4.34813 127.488 3.21484 125.482 3.21484H121.14V14.5477ZM125.482 4.41479C126.732 4.41479 127.529 5.14809 127.529 6.30804C127.529 7.49466 126.787 8.24129 125.606 8.24129H122.376V4.41479H125.482ZM126.004 13.3477H122.376V9.37457H125.606C127.09 9.37457 128.052 10.2145 128.052 11.3212C128.052 12.5078 127.241 13.3477 126.004 13.3477Z" fill="#0E0F11"/>
<path d="M98.7547 35.9863V30.9199H104.21V29.7199H98.7547V25.8534H104.334V24.6535H97.518V35.9863H98.7547Z" fill="#0E0F11"/>
<path d="M105.785 30.3199C105.785 33.6931 107.984 36.0663 111.103 36.0663C114.237 36.0663 116.435 33.6931 116.435 30.3199C116.435 26.9467 114.237 24.5868 111.103 24.5868C107.984 24.5868 105.785 26.96 105.785 30.3199ZM111.103 25.7601C113.522 25.7601 115.198 27.6267 115.198 30.3199C115.198 32.9998 113.522 34.8797 111.103 34.8797C108.712 34.8797 107.022 33.0131 107.022 30.3199C107.022 27.64 108.699 25.7601 111.103 25.7601Z" fill="#0E0F11"/>
<path d="M126.86 28.5733H128.193C127.547 26.1201 125.678 24.5868 123.109 24.5868C119.948 24.5868 117.846 26.88 117.846 30.3199C117.846 33.7464 119.962 36.053 123.109 36.053C125.665 36.053 127.63 34.5197 128.193 32.0665H126.874C126.352 33.7464 124.936 34.7997 123.095 34.7997C120.704 34.7997 119.096 32.9998 119.096 30.3199C119.096 27.6267 120.69 25.8401 123.081 25.8401C124.895 25.8401 126.255 26.8534 126.86 28.5733Z" fill="#0E0F11"/>
<path d="M129.763 30.3199C129.763 34.0797 131.384 36.0663 134.435 36.0663C137.472 36.0663 139.093 34.0664 139.093 30.3199V24.6535H137.856V30.3199C137.856 33.3997 136.743 34.8797 134.435 34.8797C132.099 34.8797 130.999 33.4131 130.999 30.3199V24.6535H129.763V30.3199Z" fill="#0E0F11"/>
<path d="M140.824 32.6531C140.934 34.773 142.789 36.0663 145.015 36.0663C147.337 36.053 148.973 34.6264 149 32.8664C149.028 30.5732 146.994 29.9066 145.221 29.5199C143.737 29.1733 142.404 28.9599 142.432 27.52C142.459 26.3601 143.558 25.7334 144.974 25.7334C146.307 25.7334 147.392 26.4267 147.489 27.64H148.725C148.657 25.6668 146.966 24.5868 144.974 24.5868C142.913 24.5868 141.222 25.5334 141.195 27.5333C141.195 29.9599 143.215 30.2266 145.015 30.6532C146.375 30.9865 147.777 31.3998 147.763 32.8798C147.736 34.0264 146.595 34.9197 145.001 34.9197C143.448 34.9197 142.184 33.9997 142.061 32.6531H140.824Z" fill="#0E0F11"/>
<path d="M18.7568 20.8732L22.6609 4.94041L27.7533 22.9729L23.5521 38H11.7124L0 0H12.9855L18.7568 20.8732ZM46.4252 38H33.9914L23.255 0H36.4103L46.4252 38ZM46.5525 0H58.4346L47.8256 36.0238L42.5211 15.7681L46.5525 0Z" fill="#0E0F11"/>
<path d="M56.1853 14.039H66.2852L68.7889 0H80.6286L73.7539 37.8353H49.438L52.748 28.1603H63.739L64.6301 23.0964H54.5303L56.1853 14.039Z" fill="#0E0F11"/>
<path d="M89.7578 0H89.0789V38H89.7578V0Z" fill="#0E0F11"/>
</svg>
