<svg width="149" height="38" fill="none" xmlns="http://www.w3.org/2000/svg"><path d="M100.679 14.548h1.277l2.254-8.84 2.24 8.84h1.278l3.683-11.333h-1.292l-2.968 9.066-2.295-9.066h-1.278l-2.322 9.053-2.955-9.053H97.01l3.669 11.306v.027zm18.762-10.133v-1.2h-6.816v11.333h6.939v-1.2h-5.702V9.48h5.455v-1.2h-5.455V4.415h5.579zm1.699 10.133h4.864c1.924 0 3.298-1.32 3.298-3.174 0-1.226-.756-2.186-1.965-2.64.921-.466 1.443-1.333 1.443-2.506 0-1.88-1.292-3.013-3.298-3.013h-4.342v11.333zm4.342-10.133c1.25 0 2.047.733 2.047 1.893 0 1.187-.742 1.933-1.923 1.933h-3.23V4.415h3.106zm.522 8.933h-3.628V9.375h3.23c1.484 0 2.446.84 2.446 1.946 0 1.187-.811 2.027-2.048 2.027zM98.755 35.986V30.92h5.455v-1.2h-5.455v-3.867h5.579v-1.2h-6.816v11.333h1.237zm7.03-5.666c0 3.373 2.199 5.746 5.318 5.746 3.134 0 5.332-2.373 5.332-5.746s-2.198-5.733-5.332-5.733c-3.119 0-5.318 2.373-5.318 5.733zm5.318-4.56c2.419 0 4.095 1.867 4.095 4.56 0 2.68-1.676 4.56-4.095 4.56-2.391 0-4.081-1.867-4.081-4.56 0-2.68 1.677-4.56 4.081-4.56zm15.757 2.813h1.333c-.646-2.453-2.515-3.986-5.084-3.986-3.161 0-5.263 2.293-5.263 5.733 0 3.426 2.116 5.733 5.263 5.733 2.556 0 4.521-1.533 5.084-3.986h-1.319c-.522 1.68-1.938 2.733-3.779 2.733-2.391 0-3.999-1.8-3.999-4.48 0-2.693 1.594-4.48 3.985-4.48 1.814 0 3.174 1.013 3.779 2.733zm2.903 1.747c0 3.76 1.621 5.746 4.672 5.746 3.037 0 4.658-2 4.658-5.746v-5.666h-1.237v5.666c0 3.08-1.113 4.56-3.421 4.56-2.336 0-3.436-1.467-3.436-4.56v-5.666h-1.236v5.666zm11.061 2.333c.11 2.12 1.965 3.413 4.191 3.413 2.322-.013 3.958-1.44 3.985-3.2.028-2.293-2.006-2.96-3.779-3.346-1.484-.347-2.817-.56-2.789-2 .027-1.16 1.126-1.787 2.542-1.787 1.333 0 2.418.694 2.515 1.907h1.236c-.068-1.973-1.759-3.053-3.751-3.053-2.061 0-3.752.946-3.779 2.946 0 2.427 2.02 2.694 3.82 3.12 1.36.334 2.762.747 2.748 2.227-.027 1.146-1.168 2.04-2.762 2.04-1.553 0-2.817-.92-2.94-2.267h-1.237zM18.757 20.873L22.66 4.94l5.092 18.033L23.553 38h-11.84L0 0h12.986l5.77 20.873zM46.425 38H33.991L23.255 0H36.41l10.015 38zm.128-38h11.882l-10.61 36.024-5.304-20.256L46.553 0zm9.632 14.039h10.1L68.79 0h11.84l-6.875 37.835H49.438l3.31-9.675h10.991l.891-5.064h-10.1l1.655-9.057zM89.758 0h-.68v38h.68V0z" fill="#0E0F11"/></svg>