<svg width="23" height="23" fill="none" xmlns="http://www.w3.org/2000/svg"><path d="M11.497 7.665A3.843 3.843 0 007.662 11.5a3.843 3.843 0 003.835 3.835 3.843 3.843 0 003.835-3.835 3.843 3.843 0 00-3.835-3.835zM22.999 11.5c0-1.588.014-3.162-.075-4.747-.09-1.841-.51-3.475-1.856-4.822C19.72.582 18.088.165 16.247.076 14.659-.014 13.085 0 11.5 0 9.912 0 8.338-.014 6.753.076 4.912.165 3.278.585 1.93 1.93.582 3.281.165 4.911.076 6.753-.014 8.341 0 9.915 0 11.5s-.015 3.162.075 4.747c.089 1.841.509 3.475 1.855 4.822 1.35 1.349 2.98 1.766 4.822 1.855 1.588.09 3.162.075 4.747.075 1.588 0 3.162.015 4.747-.075 1.84-.089 3.475-.509 4.821-1.855 1.35-1.35 1.767-2.98 1.856-4.822.092-1.585.075-3.159.075-4.747zm-11.502 5.9a5.892 5.892 0 01-5.9-5.9c0-3.265 2.635-5.9 5.9-5.9 3.265 0 5.9 2.635 5.9 5.9 0 3.265-2.635 5.9-5.9 5.9zm6.142-10.664a1.376 1.376 0 01-1.378-1.378c0-.763.616-1.378 1.378-1.378a1.376 1.376 0 01.975 2.353 1.376 1.376 0 01-.975.403z" fill="#0E0F11"/></svg>