<svg width="18" height="19" viewBox="0 0 18 19" fill="none" xmlns="http://www.w3.org/2000/svg">
<path fill-rule="evenodd" clip-rule="evenodd" d="M6.6861 6.7721H10.0287V8.4371C10.5102 7.4795 11.745 6.6191 13.5999 6.6191C17.1558 6.6191 18 8.5253 18 12.0227V18.5H14.4V12.8192C14.4 10.8275 13.9185 9.7043 12.6927 9.7043C10.9926 9.7043 10.2861 10.9148 10.2861 12.8183V18.5H6.6861V6.7721ZM0.513 18.347H4.113V6.6191H0.513V18.347ZM4.6287 2.795C4.62883 3.09675 4.56899 3.39551 4.45265 3.67393C4.33631 3.95235 4.16579 4.20486 3.951 4.4168C3.51576 4.84936 2.92663 5.09149 2.313 5.09C1.70045 5.08959 1.11268 4.84808 0.6768 4.4177C0.46279 4.20504 0.292847 3.95224 0.176709 3.67379C0.0605713 3.39534 0.000521219 3.0967 0 2.795C0 2.1857 0.243 1.6025 0.6777 1.1723C1.1132 0.741343 1.70122 0.499731 2.3139 0.5C2.9277 0.5 3.5163 0.7421 3.951 1.1723C4.3848 1.6025 4.6287 2.1857 4.6287 2.795Z" fill="#0E0F11"/>
</svg>
