<svg width="20" height="21" viewBox="0 0 20 21" fill="none" xmlns="http://www.w3.org/2000/svg">
<path d="M11.5448 8.45749C10.7257 7.63868 9.61488 7.17871 8.45667 7.17871C7.29847 7.17871 6.18767 7.63868 5.36852 8.45749L2.27936 11.5456C1.4602 12.3648 1 13.4758 1 14.6343C1 15.7928 1.4602 16.9038 2.27936 17.723C3.09853 18.5421 4.20955 19.0023 5.36802 19.0023C6.52649 19.0023 7.63751 18.5421 8.45667 17.723L10.0008 16.1789" stroke="#0E0F11" stroke-width="2" stroke-linecap="round" stroke-linejoin="round"/>
<path d="M8.45605 11.5448C9.2752 12.3636 10.386 12.8236 11.5442 12.8236C12.7024 12.8236 13.8132 12.3636 14.6324 11.5448L17.7215 8.45667C18.5407 7.63751 19.0009 6.52649 19.0009 5.36802C19.0009 4.20955 18.5407 3.09853 17.7215 2.27936C16.9024 1.4602 15.7913 1 14.6329 1C13.4744 1 12.3634 1.4602 11.5442 2.27936L10.0001 3.82344" stroke="#0E0F11" stroke-width="2" stroke-linecap="round" stroke-linejoin="round"/>
</svg>
