<svg width="14" height="24" fill="none" xmlns="http://www.w3.org/2000/svg"><path d="M9.554 17.442a11.866 11.866 0 003.638-1.492 1.8 1.8 0 00.526-2.471 1.833 1.833 0 00-1.117-.796 1.85 1.85 0 00-1.362.197 8.02 8.02 0 01-4.215 1.195 8.02 8.02 0 01-4.215-1.195 1.85 1.85 0 00-1.38-.236 1.834 1.834 0 00-1.146.798v.003a1.8 1.8 0 00.573 2.5l.003.004a11.75 11.75 0 003.631 1.489l-3.5 3.464a1.787 1.787 0 00-.028 2.536l.031.031c.348.355.818.531 1.288.531.47 0 .939-.176 1.286-.531l3.457-3.403 3.438 3.408c.73.69 1.89.674 2.594-.048a1.804 1.804 0 000-2.52l-3.502-3.464zm-2.53-5.054a6.297 6.297 0 004.423-1.815 6.168 6.168 0 001.836-4.378c0-3.414-2.81-6.195-6.26-6.195C3.575 0 .765 2.781.765 6.195a6.171 6.171 0 001.836 4.38 6.3 6.3 0 004.424 1.817v-.004zm0-8.755c.686 0 1.344.27 1.83.751a2.55 2.55 0 01.758 1.811c0 .68-.273 1.332-.758 1.814a2.608 2.608 0 01-1.83.754 2.613 2.613 0 01-1.832-.754 2.56 2.56 0 01-.76-1.814 2.56 2.56 0 01.761-1.811 2.615 2.615 0 011.83-.755v.004z" fill="#0E0F11"/></svg>