<svg width="44" height="44" viewBox="0 0 44 44" fill="none" xmlns="http://www.w3.org/2000/svg">
<circle cx="22" cy="22" r="22" fill="#F1F4F4"/>
<path d="M27.1576 25.5084C26.5823 25.5112 26.0151 25.6399 25.4977 25.885C24.9803 26.13 24.5259 26.4852 24.1681 26.9243L18.5505 23.5007C18.7552 22.8565 18.7552 22.167 18.5505 21.5229L24.1681 18.0992C24.7383 18.7875 25.54 19.2568 26.4311 19.4241C27.3223 19.5913 28.2454 19.4457 29.0369 19.0129C29.8285 18.5802 30.4373 17.8883 30.7557 17.0599C31.0741 16.2314 31.0814 15.3199 30.7763 14.4867C30.4713 13.6535 29.8736 12.9524 29.089 12.5077C28.3045 12.063 27.3839 11.9033 26.4902 12.0569C25.5964 12.2106 24.7874 12.6676 24.2062 13.3471C23.6251 14.0266 23.3094 14.8847 23.3151 15.7694C23.3187 16.1044 23.3705 16.4372 23.4688 16.7582L17.8511 20.1819C17.3552 19.5733 16.6773 19.1301 15.9114 18.9139C15.1456 18.6976 14.3297 18.719 13.5768 18.975C12.824 19.231 12.1715 19.709 11.7098 20.3427C11.248 20.9765 11 21.7345 11 22.5118C11 23.2891 11.248 24.0471 11.7098 24.6808C12.1715 25.3145 12.824 25.7925 13.5768 26.0485C14.3297 26.3046 15.1456 26.3259 15.9114 26.1097C16.6773 25.8934 17.3552 25.4503 17.8511 24.8417L23.4688 28.2653C23.3705 28.5863 23.3187 28.9192 23.3151 29.2542C23.3151 29.9951 23.5405 30.7193 23.9627 31.3353C24.3849 31.9513 24.985 32.4314 25.6871 32.7149C26.3892 32.9984 27.1618 33.0726 27.9072 32.928C28.6525 32.7835 29.3372 32.4267 29.8746 31.9029C30.4119 31.379 30.7779 30.7116 30.9262 29.985C31.0744 29.2584 30.9983 28.5052 30.7075 27.8208C30.4167 27.1363 29.9242 26.5513 29.2923 26.1397C28.6604 25.7281 27.9175 25.5084 27.1576 25.5084ZM27.1576 13.5219C27.6135 13.5219 28.0593 13.6537 28.4384 13.9006C28.8175 14.1476 29.113 14.4986 29.2875 14.9093C29.462 15.32 29.5077 15.7718 29.4187 16.2078C29.3298 16.6438 29.1102 17.0442 28.7878 17.3586C28.4653 17.6729 28.0545 17.8869 27.6073 17.9736C27.1601 18.0604 26.6966 18.0159 26.2753 17.8458C25.854 17.6756 25.494 17.3876 25.2406 17.018C24.9873 16.6484 24.8521 16.2139 24.8521 15.7694C24.8521 15.1733 25.095 14.6016 25.5273 14.1802C25.9597 13.7587 26.5461 13.5219 27.1576 13.5219ZM14.8617 24.7593C14.4057 24.7593 13.96 24.6274 13.5809 24.3805C13.2017 24.1335 12.9062 23.7825 12.7318 23.3719C12.5573 22.9612 12.5116 22.5093 12.6006 22.0733C12.6895 21.6374 12.9091 21.2369 13.2315 20.9226C13.5539 20.6083 13.9647 20.3942 14.412 20.3075C14.8592 20.2208 15.3227 20.2653 15.744 20.4354C16.1653 20.6055 16.5253 20.8936 16.7787 21.2632C17.032 21.6327 17.1672 22.0673 17.1672 22.5118C17.1672 23.1078 16.9243 23.6795 16.4919 24.101C16.0596 24.5225 15.4732 24.7593 14.8617 24.7593ZM27.1576 31.5017C26.7016 31.5017 26.2558 31.3699 25.8767 31.1229C25.4976 30.876 25.2021 30.525 25.0276 30.1143C24.8531 29.7036 24.8074 29.2517 24.8964 28.8157C24.9853 28.3798 25.2049 27.9793 25.5273 27.665C25.8498 27.3507 26.2606 27.1366 26.7078 27.0499C27.155 26.9632 27.6185 27.0077 28.0398 27.1778C28.4611 27.3479 28.8211 27.636 29.0745 28.0056C29.3278 28.3752 29.463 28.8097 29.463 29.2542C29.463 29.8503 29.2201 30.4219 28.7878 30.8434C28.3554 31.2649 27.769 31.5017 27.1576 31.5017Z" fill="#0E0F11"/>
</svg>
