<svg width="21" height="18" viewBox="0 0 21 18" fill="none" xmlns="http://www.w3.org/2000/svg">
<path d="M21 2.07582C20.2277 2.42661 19.3981 2.66362 18.526 2.77076C19.4259 2.21878 20.0991 1.35004 20.4201 0.326628C19.5746 0.841421 18.6493 1.20378 17.6844 1.39795C17.0355 0.687715 16.176 0.216961 15.2393 0.0587732C14.3027 -0.0994145 13.3413 0.0638146 12.5044 0.523118C11.6675 0.982422 11.002 1.7121 10.6111 2.59887C10.2203 3.48565 10.1259 4.47989 10.3428 5.42725C8.62963 5.33908 6.95372 4.88263 5.4238 4.08754C3.89389 3.29244 2.54416 2.17647 1.46221 0.812041C1.09227 1.46621 0.879547 2.22467 0.879547 3.03242C0.879135 3.75959 1.05382 4.47562 1.38811 5.11698C1.7224 5.75834 2.20595 6.3052 2.79587 6.70904C2.11172 6.68673 1.44267 6.49723 0.844402 6.15632V6.2132C0.844333 7.23308 1.18848 8.22158 1.81846 9.01096C2.44843 9.80034 3.32542 10.342 4.30063 10.544C3.66597 10.7201 3.00058 10.746 2.35471 10.6198C2.62985 11.4974 3.16581 12.2648 3.88755 12.8146C4.60929 13.3643 5.48068 13.669 6.37972 13.6859C4.85354 14.914 2.96871 15.5802 1.02845 15.5773C0.684753 15.5774 0.341346 15.5568 0 15.5157C1.96948 16.8138 4.2621 17.5027 6.60354 17.5C14.5296 17.5 18.8626 10.7706 18.8626 4.93425C18.8626 4.74464 18.858 4.55313 18.8497 4.36352C19.6925 3.73871 20.42 2.96501 20.9982 2.07866L21 2.07582Z" fill="#0E0F11"/>
</svg>
