<svg width="26" height="16" fill="none" xmlns="http://www.w3.org/2000/svg"><path fill-rule="evenodd" clip-rule="evenodd" d="M25.404 1.083c.18-.624 0-1.083-.862-1.083H21.7c-.724 0-1.058.397-1.239.834 0 0-1.446 3.653-3.494 6.025-.663.688-.964.907-1.326.907-.181 0-.453-.219-.453-.844V1.083c0-.75-.2-1.083-.802-1.083H9.913c-.451 0-.723.347-.723.678 0 .71 1.024.874 1.13 2.872v4.34c0 .952-.166 1.125-.528 1.125-.964 0-3.31-3.67-4.702-7.869C4.82.33 4.548 0 3.82 0H.976C.162 0 0 .397 0 .834c0 .78.964 4.652 4.49 9.773C6.841 14.104 10.15 16 13.165 16c1.809 0 2.032-.42 2.032-1.146V12.21c0-.842.17-1.01.744-1.01.422 0 1.145.22 2.833 1.905C20.702 15.104 21.019 16 22.105 16h2.844c.812 0 1.22-.42.985-1.253-.257-.827-1.178-2.028-2.4-3.453-.662-.812-1.656-1.686-1.959-2.124-.421-.56-.3-.811 0-1.31 0 0 3.467-5.059 3.828-6.777z" fill="#0E0F11"/></svg>