<svg width="23" height="23" fill="none" xmlns="http://www.w3.org/2000/svg"><path d="M21.28 5.319c-3.44-5.32-10.465-6.9-15.912-3.594C.063 5.03-1.657 12.219 1.784 17.538l.286.43-1.146 4.313 4.3-1.15.43.288C7.518 22.425 9.524 23 11.532 23c2.15 0 4.3-.575 6.164-1.725C23 17.825 24.577 10.781 21.28 5.319zm-3.01 11.068c-.574.863-1.29 1.438-2.294 1.582-.574 0-1.29.287-4.158-.863-2.437-1.15-4.444-3.019-5.877-5.175-.86-1.006-1.29-2.3-1.434-3.594 0-1.15.43-2.156 1.147-2.875.287-.287.574-.43.86-.43h.717c.287 0 .574 0 .717.574.287.719 1.003 2.444 1.003 2.588a.438.438 0 010 .575c.144.287 0 .575-.143.718-.143.144-.287.432-.43.575-.287.144-.43.432-.287.72.574.862 1.29 1.724 2.007 2.443.86.719 1.72 1.294 2.724 1.725.287.144.573.144.717-.144.143-.287.86-1.006 1.147-1.294.286-.287.43-.287.716-.143l2.294 1.15c.287.143.573.287.717.43.143.432.143 1.007-.143 1.438z" fill="#0E0F11"/></svg>