<svg width="27" height="19" fill="none" xmlns="http://www.w3.org/2000/svg"><path d="M26.435 2.83a3.133 3.133 0 00-.862-1.428 3.43 3.43 0 00-1.505-.835C21.955.01 13.492.01 13.492.01A86.19 86.19 0 002.93.54a3.555 3.555 0 00-1.505.854c-.416.4-.718.894-.875 1.435A32.722 32.722 0 000 9.01c-.013 2.071.17 4.14.55 6.18a3.18 3.18 0 00.871 1.428c.418.397.937.683 1.509.835 2.14.556 10.562.556 10.562.556 3.533.04 7.065-.136 10.576-.529a3.431 3.431 0 001.505-.834c.41-.39.708-.883.86-1.429a31.88 31.88 0 00.564-6.18c.03-2.083-.16-4.163-.562-6.207v.001zM10.802 12.86v-7.7l7.041 3.851-7.041 3.85z" fill="#0E0F11"/></svg>