<svg width="69" height="69" viewBox="0 0 69 69" fill="none" xmlns="http://www.w3.org/2000/svg">
<path d="M34.4111 0C15.4047 0 -0.00390625 15.4086 -0.00390625 34.415C-0.00390625 53.4214 15.4047 68.83 34.4111 68.83C53.4175 68.83 68.8261 53.4214 68.8261 34.415C68.8261 15.4086 53.4175 0 34.4111 0ZM66.5882 34.415C66.5882 52.185 52.1832 66.5921 34.4111 66.5921C16.6391 66.5921 2.23404 52.185 2.23404 34.415C2.23404 16.645 16.6411 2.23795 34.4111 2.23795C52.1811 2.23795 66.5882 16.645 66.5882 34.415Z" fill="#6D6D6D"/>
<path d="M51.0907 19.8135C51.5582 20.3153 52.232 21.1247 52.6104 21.6164L59.5792 17.1931C59.2311 16.7378 58.6767 16.0458 58.2619 15.5582L53.8487 18.476L53.5472 18.735L53.7718 18.4072L55.7204 14.5181L54.3424 13.1401L50.4513 15.0887L50.1235 15.3133L50.3846 15.0118L53.3044 10.6007C52.7904 10.1636 52.2967 9.76297 51.6674 9.27734L47.2441 16.2401C47.8046 16.6711 48.5432 17.3044 49.0147 17.7354L53.179 15.5744L53.446 15.3781L53.2498 15.6452L51.0907 19.8135Z" fill="#6D6D6D"/>
<path d="M35.2756 10.9889L37.1797 6.72342L37.3011 6.34504L37.2667 6.73961L37.467 12.4397C38.1348 12.5024 38.8248 12.5955 39.5047 12.7088L39.1951 4.26694C38.2441 4.16172 37.2971 4.08686 36.3501 4.04639L34.4743 8.70237L34.4076 9.04838L34.3408 8.70237L32.4671 4.04639C31.5201 4.08686 30.5731 4.16172 29.6221 4.26694L29.3125 12.7088C29.9924 12.5955 30.6824 12.5045 31.3501 12.4397L31.5504 6.73961L31.516 6.34504L31.6375 6.72342L33.5415 10.9889H35.2756Z" fill="#6D6D6D"/>
<path d="M19.8767 17.7164C20.9775 16.557 21.6007 15.2175 20.4999 13.9386C19.901 13.2446 18.8953 13.0928 18.0617 13.4348L17.9787 13.4672L18.005 13.3943C18.1284 13.0645 18.2073 12.0123 17.3109 11.2859C16.8739 10.9318 16.3255 10.8003 15.7711 10.8569C14.7371 10.9621 13.9419 11.6683 11.7768 14.0823C11.1232 14.8108 10.1722 15.9601 9.60156 16.7047L15.5485 22.3461C17.5194 20.1648 18.3227 19.3534 19.8767 17.7164ZM12.1167 16.3364C13.3146 14.8715 14.5874 13.542 15.1641 13.0159C15.3462 12.85 15.5445 12.6841 15.7853 12.6194C16.1758 12.5121 16.5785 12.7893 16.6695 13.19C16.7606 13.5926 16.5076 13.9751 16.2264 14.2907C15.593 15.005 13.2701 17.4352 13.2701 17.4352L12.1167 16.3364ZM14.4457 18.5461C14.4457 18.5461 16.708 16.1543 17.4465 15.3895C17.7399 15.0859 17.9281 14.9018 18.1304 14.8027C18.3915 14.6752 18.6768 14.6489 18.9317 14.8189C19.1826 14.9868 19.298 15.2762 19.2353 15.5635C19.1604 15.9055 18.8812 16.2312 18.6505 16.4801C18.3389 16.814 15.6558 19.6853 15.6517 19.6893L14.4457 18.5461Z" fill="#6D6D6D"/>
<circle cx="34.4877" cy="34.4921" r="19.2324" stroke="#6D6D6D" stroke-width="1.30189"/>
<path d="M53.2048 34.4162H34.4121V15.6235C44.7978 15.6235 53.2048 24.0305 53.2048 34.4162Z" fill="white"/>
<path d="M34.4138 34.4155V53.2082C24.028 53.2082 15.6211 44.8012 15.6211 34.4155H34.4138Z" fill="white"/>
<path d="M34.4138 15.6235V34.4162H15.6211C15.6211 24.0305 24.028 15.6235 34.4138 15.6235Z" fill="#0066B1"/>
<path d="M53.2048 34.4155C53.2048 44.8012 44.7978 53.2082 34.4121 53.2082V34.4155H53.2048Z" fill="#0066B1"/>
</svg>
