<svg width="187" height="42" viewBox="0 0 187 42" fill="none" xmlns="http://www.w3.org/2000/svg">
<path fill-rule="evenodd" clip-rule="evenodd" d="M20.2347 0.821998C19.9059 0.871176 18.8296 1.02225 17.8431 1.15773C11.1322 2.08028 4.57409 7.28815 2.07317 13.6808C0.546591 17.5831 0.206024 22.6382 1.21601 26.4036C3.14868 33.6096 8.67789 39.0851 16.0998 41.1432C18.6613 41.8532 23.7908 41.8551 26.4769 41.147C28.8109 40.5315 31.8831 39.0283 33.8632 37.5329C36.983 35.1769 40.0864 30.7478 41.1356 27.1536C41.3444 26.4384 41.6233 24.816 41.7551 23.548C42.7292 14.1863 37.5511 5.68846 28.7659 2.2316C26.4281 1.31188 21.9328 0.569017 20.2347 0.821998ZM25.3296 3.17591C26.2762 3.38208 28.1271 4.06465 29.4425 4.69285C34.9262 7.3118 38.4761 11.9045 39.714 17.9819C40.4083 21.3908 40.0345 24.828 38.5878 28.3357C37.5554 30.8391 36.4564 32.4239 34.2394 34.6066C31.2931 37.5071 27.8387 39.1427 23.4653 39.7085C16.8309 40.5665 10.2009 37.6922 6.07317 32.1687C0.929732 25.2858 1.49942 15.171 7.38928 8.80013C10.9389 4.96049 15.7774 2.85649 21.1442 2.81866C22.5771 2.80849 24.3285 2.95792 25.3296 3.17591ZM96.1412 7.52033C92.2151 8.66726 89.166 12.004 87.8922 16.5477C87.3024 18.652 87.2663 23.3662 87.8233 25.5385C88.3495 27.5907 89.5924 30.1461 90.6435 31.3365C91.7609 32.6019 94.3699 34.3035 95.9969 34.8279C97.7557 35.3948 101.687 35.3913 103.593 34.821C105.717 34.1853 108.106 32.544 109.384 30.8412C111.485 28.0411 112.304 25.3498 112.304 21.2428C112.304 14.2496 108.973 9.05358 103.497 7.50543C101.443 6.92476 98.1571 6.93138 96.1412 7.52033ZM121.281 7.49385C118.577 8.37692 116.605 9.99553 115.618 12.1402C115.174 13.1051 115.075 13.7349 115.075 15.5684C115.076 17.536 115.155 17.9611 115.706 18.9967C116.885 21.2104 119.114 22.7124 122.357 23.4771C126.052 24.3486 127.308 24.7829 127.94 25.4082C129.144 26.5982 128.635 28.2464 126.81 29.0653C125.589 29.6136 124.383 29.6321 122.633 29.1297C120.985 28.6561 120.399 28.3116 119.002 26.9954L117.92 25.9745L115.774 28.1149L113.628 30.2553L115.21 31.7458C117.815 34.1999 120.576 35.1934 124.783 35.1903C129.594 35.187 133.061 33.3774 134.745 29.9907C135.317 28.8405 135.392 28.4175 135.391 26.3261C135.391 24.2795 135.312 23.8083 134.801 22.8198C133.676 20.6413 131.942 19.5329 128.236 18.6229C123.667 17.5008 123.262 17.3658 122.578 16.734C121.714 15.9361 121.653 14.9064 122.417 14.0366C123.948 12.2939 127.688 12.6828 130.075 14.8331L130.738 15.4301L132.899 13.3124L135.06 11.1945L134.003 10.24C132.657 9.02403 130.538 7.90997 128.661 7.43143C126.724 6.938 122.884 6.97039 121.281 7.49385ZM147.52 7.39999C143.857 8.27644 141.317 10.2582 139.624 13.5588C138.231 16.2751 138.021 17.2582 138.036 21.0064C138.047 23.844 138.138 24.7091 138.565 26.0284C139.733 29.6333 141.176 31.6474 143.829 33.3743C146.127 34.8704 147.461 35.2395 150.569 35.2395C153.586 35.2395 155.319 34.8269 157.142 33.6743C158.409 32.8728 161.102 30.1217 161.102 29.6281C161.102 29.473 159.915 28.5705 158.465 27.6226L155.829 25.8993L154.972 26.8892C153.782 28.2631 152.602 28.8086 150.818 28.8086C147.686 28.8086 145.609 26.7025 144.831 22.738C144.346 20.2675 145.113 17.1495 146.646 15.3557C147.437 14.4298 149.512 13.4406 150.662 13.4406C152.126 13.4406 153.629 14.1293 154.638 15.263C155.249 15.9491 155.719 16.2834 155.949 16.1962C156.147 16.1212 157.39 15.3592 158.712 14.5028L161.116 12.946L160.025 11.5728C158.918 10.1802 157.361 8.92331 155.84 8.19487C153.587 7.1158 150.099 6.78243 147.52 7.39999ZM62.6244 21.1837L62.6861 34.6011H70.8176H78.9492L80.5439 33.8299C84.2203 32.0519 85.9088 28.317 84.6659 24.7115C84.2048 23.373 82.5852 21.6554 81.3779 21.2239C80.6025 20.9468 80.1448 20.2971 80.7245 20.2971C81.132 20.2971 82.4555 19.0452 83.0769 18.0722C83.5406 17.3462 83.7183 16.7005 83.7987 15.4519C84.0326 11.8106 82.4163 9.4184 78.9188 8.22867C77.6821 7.80806 76.8802 7.76622 70.0607 7.76622H62.5625L62.6244 21.1837ZM163.972 21.2428V34.7194H167.559H171.146V29.3997V24.08H175.332H179.517V29.3997V34.7194H183.105H186.692V21.2428V7.76622H183.105H179.517V12.7313V17.6963H175.332H171.146V12.7313V7.76622H167.559H163.972V21.2428ZM11.3816 9.59454C8.81182 11.7877 7.66862 13.459 6.55651 16.6489C5.93469 18.4323 5.84859 19.0028 5.85266 21.321C5.85816 24.6595 6.43335 26.6412 8.23233 29.5179C9.77708 31.9886 12.1206 34.0101 13.4401 34.0101H14.2556V30.5818V27.1536H21.3109H28.3662V30.5818V34.0101H29.1569C31.2092 34.0101 34.7816 29.7841 36.0592 25.8447C36.7738 23.6404 36.8254 19.2341 36.1613 17.1052C35.2929 14.3213 34.3286 12.7436 32.1598 10.5578C30.3169 8.70036 30.0004 8.47551 29.2301 8.47551H28.3662V12.022V15.5684H21.3109H14.2556V12.022V8.47551H13.4743C12.8867 8.47551 12.3677 8.75308 11.3816 9.59454ZM12.0099 30.871C11.7872 31.0911 9.93947 28.8336 9.25953 27.5108C6.70121 22.5332 7.47992 16.2338 11.1245 12.4241L11.9836 11.5262L12.046 21.1499C12.0805 26.4429 12.0642 30.8173 12.0099 30.871ZM31.5316 12.5539C32.6155 13.864 33.7063 15.8344 34.2475 17.4599C34.9035 19.4301 34.8296 23.4636 34.1004 25.4986C33.2696 27.8165 31.1877 30.9365 30.4718 30.9365C30.3661 30.9365 30.2795 26.5743 30.2795 21.2428C30.2795 15.8231 30.3723 11.5491 30.49 11.5491C30.6055 11.5491 31.0743 12.0012 31.5316 12.5539ZM75.7757 13.7664C76.9919 14.5707 77.1179 16.487 76.0257 17.5665C75.2749 18.3087 74.5034 18.4486 71.6547 18.3588L69.3827 18.2874L69.3135 16.0765C69.2664 14.5698 69.3394 13.7529 69.5424 13.511C69.9976 12.9689 74.8717 13.1687 75.7757 13.7664ZM101.593 13.8058C103.715 14.5208 104.997 16.3527 105.485 19.3705C106.148 23.4624 104.859 27.0287 102.24 28.3497C101.02 28.9649 98.7387 28.9691 97.5345 28.3587C95.1414 27.1455 93.9411 24.21 94.1946 20.1914C94.5038 15.2925 97.7325 12.5057 101.593 13.8058ZM28.3124 21.3019L28.2467 25.1439L21.2512 25.2066L14.2556 25.2692V21.3646V17.4599H21.3169H28.3782L28.3124 21.3019ZM76.3526 24.2301C77.7421 24.8819 78.213 26.2904 77.4984 27.6567C76.9117 28.7781 75.9278 29.045 72.3799 29.045H69.2631V26.4443V23.8435H72.3959C74.7999 23.8435 75.7202 23.9334 76.3526 24.2301Z" fill="black"/>
</svg>
