<svg width="173" height="30" viewBox="0 0 173 30" fill="none" xmlns="http://www.w3.org/2000/svg">
<g clip-path="url(#clip0_132_9129)">
<path d="M117.451 3.70991C117.451 3.70991 122.637 3.98206 121 7.88287C119.726 10.9672 115.45 5.34281 114.085 10.8765C113.903 11.5115 113.903 15.0495 113.994 18.2246C113.903 19.676 115.268 22.6697 117.906 20.8553C117.906 20.8553 117.906 18.6781 117.906 16.9545C113.994 16.9545 114.631 12.0558 117.906 12.0558C120.272 12.0558 119.453 11.9651 120.909 12.0558C120.909 12.0558 123.092 12.328 123.001 16.7731C123.001 16.7731 123.001 20.0389 122.91 22.4882C122.637 23.7583 121.909 25.2097 118.27 25.9355C114.722 26.5705 111.993 24.6654 111.447 24.1211C110.901 23.5768 109.264 22.0347 108.991 18.9503C108.809 15.8659 108.718 12.4187 108.991 9.69721C109.355 6.97571 111.265 5.43353 113.358 4.43565C115.45 3.34705 117.451 3.70991 117.451 3.70991Z" fill="#FF0000"/>
<path d="M129.278 20.7638V16.5908H132.371C131.098 16.5908 132.371 16.5908 132.371 16.5908C135.737 16.5908 136.01 12.055 132.462 11.8736H129.278V8.6985H132.735C131.462 8.6985 132.735 8.6985 132.735 8.6985C136.101 8.6985 136.283 3.98124 132.735 3.7998C131.916 3.7998 132.735 3.7998 132.735 3.7998H126.549C124.456 3.89052 123.729 4.8884 123.729 8.6985C123.729 8.6985 123.729 11.42 123.729 8.6985V20.7638C123.729 24.4832 124.456 25.4811 126.64 25.5718H132.826C132.007 25.5718 132.826 25.5718 132.826 25.5718C136.374 25.3903 136.192 20.7638 132.826 20.7638C131.553 20.7638 130.643 20.7638 129.278 20.7638Z" fill="#FF0000"/>
<path d="M44.032 20.7644V16.5914H47.1252C45.8516 16.5914 47.1252 16.5914 47.1252 16.5914C50.4914 16.5914 50.7643 12.0556 47.2162 11.8742H44.032V8.69909H47.4891C46.2155 8.69909 47.4891 8.69909 47.4891 8.69909C50.8553 8.69909 51.0372 3.98183 47.4891 3.89111C46.6704 3.89111 47.4891 3.89111 47.4891 3.89111H41.3027C39.2102 3.98183 38.4824 4.97971 38.4824 8.69909C38.4824 8.69909 38.4824 11.4206 38.4824 8.69909V20.7644C38.4824 24.4838 39.2102 25.4816 41.3937 25.5724H47.5801C46.7613 25.5724 47.5801 25.5724 47.5801 25.5724C51.1282 25.3909 50.9463 20.7644 47.5801 20.7644C46.3064 20.7644 45.3967 20.7644 44.032 20.7644Z" fill="#FF0000"/>
<path d="M151.749 25.1187L146.563 16.2285C148.655 14.6863 150.02 13.0534 149.929 10.4226C149.929 6.88465 146.927 3.98172 143.47 3.98172C141.741 3.98172 139.103 3.89101 139.103 3.98172C137.647 3.98172 136.646 5.16104 136.646 6.6125V22.9415C136.646 24.3929 137.647 25.663 139.103 25.663C140.558 25.663 141.65 24.4837 141.65 22.9415V17.2263L147.382 27.4773C148.11 28.7473 149.747 29.2916 150.93 28.6566C152.113 27.9309 152.476 26.3887 151.749 25.1187ZM142.833 12.7812H141.65V8.2454H142.833C144.107 8.2454 145.198 9.24328 145.198 10.5133C145.198 11.7833 144.107 12.7812 142.833 12.7812Z" fill="#FF0000"/>
<path d="M108.17 21.9437L104.804 16.2286C106.896 14.6864 108.261 13.0535 108.17 10.4227C108.17 6.88476 105.168 3.89111 101.711 3.89111C99.9819 3.89111 97.5256 3.89111 97.5256 3.89111C96.0699 3.89111 95.1602 5.07043 95.1602 6.61261V22.9416C95.1602 24.393 96.2519 25.6631 97.7075 25.6631C99.1631 25.6631 100.164 24.4838 100.164 22.9416L100.073 18.1336L103.803 24.3023C104.531 25.5724 106.168 26.1167 107.351 25.4816C108.625 24.7559 108.989 23.2137 108.17 21.9437ZM101.256 12.6906H100.073V8.24551H101.347C102.62 8.24551 103.712 9.24339 103.712 10.5134C103.621 11.6927 102.529 12.6906 101.256 12.6906Z" fill="#FF0000"/>
<path d="M75.2358 14.1417C77.0553 12.5995 77.6922 10.7852 77.1463 8.51727C76.5095 5.70506 74.235 3.98145 71.3238 3.98145H67.4118H67.3208C65.9561 3.98145 64.7734 5.16076 64.7734 6.70294V23.0319C64.7734 24.4834 65.8652 25.7534 67.3208 25.7534C69.8682 25.7534 70.6869 25.7534 72.0516 25.7534C74.508 25.7534 78.6929 23.6669 78.6929 19.5847C78.6929 17.0446 77.5102 15.2303 75.2358 14.1417ZM69.7772 8.06369H70.7779C71.9606 8.06369 72.8704 8.88014 72.8704 9.96874C72.8704 11.0573 71.9606 11.9645 70.7779 11.9645H69.7772V8.06369ZM70.9599 21.4897H69.6862V16.7725H70.9599C72.3245 16.7725 73.4162 17.8611 73.4162 19.1311C73.4162 20.4919 72.3245 21.4897 70.9599 21.4897Z" fill="#FF0000"/>
<path d="M37.0287 23.032C37.0287 26.6607 31.661 26.3885 31.661 23.2134C31.661 18.0426 31.661 18.7683 31.661 15.0489H28.0219V23.1227C28.0219 26.7514 22.6543 26.4792 22.6543 23.3041C22.6543 18.1333 22.6543 10.7853 22.6543 2.62078V2.89293C22.6543 -0.28215 28.0219 -0.5543 28.0219 3.07436V10.241H31.661C31.661 6.52159 31.661 8.06377 31.661 2.89293C31.661 -0.28215 37.0287 -0.463583 37.0287 3.07436C37.0287 7.06589 37.0287 19.2219 37.0287 23.032Z" fill="#FF0000"/>
<path d="M62.8659 6.61256C61.9561 5.25181 61.1373 4.79823 59.6817 4.16321C58.8629 3.80034 56.4065 3.61891 54.587 4.34464C52.9494 5.07038 52.0396 5.79611 51.3118 7.42901C50.402 9.42477 50.402 11.1484 51.6757 12.9627C52.8584 14.6863 54.314 15.5028 55.9516 16.1378C58.7719 17.3171 59.7726 19.0407 59.2268 20.1293C58.8629 20.8551 58.317 21.4901 57.2253 21.3994C55.6787 21.3994 55.1328 20.4015 54.587 19.1314C54.2231 18.2243 53.0404 17.5893 51.5847 18.1336C49.7652 18.8593 49.8562 20.8551 50.584 22.0344C52.1306 24.6651 54.1321 25.663 57.2253 25.663C59.7727 25.663 61.5012 24.6651 63.0478 22.6694C64.9583 20.1293 64.6854 16.7728 62.5929 14.5049C61.3193 13.0534 60.0456 12.6906 58.226 11.8741C56.0426 10.8762 55.4967 9.69692 56.2245 8.78975C57.1343 7.79187 58.6809 8.5176 59.6817 9.42477C60.4095 10.0598 61.6832 9.96907 62.502 9.24334C63.1388 8.69904 63.4117 7.33829 62.8659 6.61256Z" fill="#FF0000"/>
<path d="M93.7064 18.769C93.7064 22.6698 90.5222 25.7542 86.5192 25.7542C82.5162 25.7542 79.332 22.5791 79.332 18.769V6.52228C79.332 5.07081 80.5147 3.80078 81.9704 3.80078C83.426 3.80078 84.6087 4.9801 84.6087 6.52228V19.1319C84.6087 20.2205 85.5185 21.1276 86.6102 21.1276C87.7019 21.1276 88.6117 20.3112 88.6117 19.2226V6.52228C88.6117 5.07081 89.7944 3.80078 91.25 3.80078C92.7057 3.80078 93.8883 4.9801 93.8883 6.52228L93.7064 18.769Z" fill="#FF0000"/>
<path d="M9.00672 5.79639H8.91574L6.91425 11.4208H0L5.64057 15.0495L3.45712 20.7646L9.00672 17.2267L14.4653 20.7646H14.5563L12.3729 15.0495L17.9225 11.4208H11.0082L9.00672 5.79639Z" fill="#066AA5"/>
<path d="M164.03 5.7959H163.939L161.847 11.4203H155.023L160.573 15.049L158.39 20.7641H158.481L163.939 17.2262L169.489 20.7641L167.396 15.049L172.946 11.4203H166.032L164.03 5.7959Z" fill="#066AA5"/>
<path d="M151.658 6.15872C152.362 6.15872 152.932 5.5901 152.932 4.88868C152.932 4.18726 152.362 3.61865 151.658 3.61865C150.955 3.61865 150.385 4.18726 150.385 4.88868C150.385 5.5901 150.955 6.15872 151.658 6.15872Z" stroke="#FF0000" stroke-width="1.41293" stroke-miterlimit="3.864"/>
<path d="M151.296 4.88861V4.34431H151.569C151.842 4.34431 152.024 4.43503 152.024 4.61646C152.024 4.79789 151.933 4.88861 151.66 4.88861H151.296ZM151.933 5.07004C152.206 5.07004 152.388 4.88861 152.388 4.52574C152.388 4.07216 152.024 3.98145 151.66 3.98145H151.023V5.70506H151.387V5.16076H151.66L152.115 5.79578H152.57L151.933 5.07004Z" fill="#FF0000"/>
</g>
<defs>
<clipPath id="clip0_132_9129">
<rect width="172.856" height="29.0293" fill="white" transform="translate(0 0.443848)"/>
</clipPath>
</defs>
</svg>
