<svg width="180" height="41" viewBox="0 0 180 41" fill="none" xmlns="http://www.w3.org/2000/svg">
<g clip-path="url(#clip0_132_9176)">
<path d="M29.3519 17.683V34.746C29.3519 38.0447 23.7732 40.4331 16.9762 40.4331C10.1791 40.4331 4.59961 38.0456 4.59961 34.7451V6.53558C4.59961 3.23515 10.1791 0.847656 16.9762 0.847656C23.7732 0.847656 29.3519 3.23515 29.3519 6.53558V12.9055C32.9854 11.4269 31.9638 16.0905 34.1206 16.0905C35.5587 16.0905 36.4667 15.218 36.8453 13.4737L38.7757 16.0905C37.8677 17.6822 36.6189 18.4788 35.0294 18.4788C32.6446 18.4788 31.5094 13.5884 29.3519 14.9524V16.3181C32.6825 16.4699 34.0827 18.2512 33.5534 21.6638L31.3959 21.3232C31.8502 19.3514 31.1687 18.1382 29.3519 17.683ZM16.9762 10.8578C23.0965 10.8578 27.9895 8.76309 27.9895 6.53558C27.9895 4.30643 23.0965 2.21253 16.9753 2.21253C10.855 2.21253 5.96198 4.30726 5.96198 6.53558C5.96198 8.76391 10.855 10.857 16.9762 10.857V10.8578ZM16.9301 21.531C20.9719 21.531 25.2483 25.1506 27.4322 18.8912C30.0499 11.3889 20.6327 16.5194 16.9869 16.5259C13.2496 16.5325 3.75996 11.1844 6.42872 18.8912C8.60851 25.1861 12.8454 21.531 16.9301 21.531Z" fill="black"/>
<path d="M11.4064 18.0349C10.9422 17.8166 10.4662 17.6244 9.98063 17.4593C9.91724 18.2634 10.2646 19.0105 11.0409 19.7396C11.7175 20.3754 12.3563 20.4496 13.0404 19.9004C13.266 19.653 13.461 19.3726 13.6265 19.0608C13.3483 18.9454 13.0585 18.8134 12.7622 18.6732C12.7886 18.8367 12.77 19.0043 12.7083 19.158C12.6467 19.3116 12.5443 19.4455 12.4123 19.5451C12.2803 19.6448 12.1236 19.7065 11.9592 19.7235C11.7948 19.7405 11.6288 19.7122 11.4793 19.6417C11.3297 19.5712 11.2022 19.4612 11.1105 19.3234C11.0188 19.1856 10.9663 19.0254 10.9588 18.8599C10.9513 18.6945 10.9891 18.5302 11.0679 18.3846C11.1468 18.2391 11.2638 18.1179 11.4064 18.0341V18.0349ZM9.08912 17.2465C8.26594 17.1401 7.61727 17.3702 7.32422 18.251C8.00499 11.7672 15.4984 21.323 16.2936 18.138C16.2936 19.4278 15.6359 19.6546 14.6736 19.4221C13.671 21.1226 12.0164 21.756 9.70815 21.323C10.2527 21.2882 10.7905 21.1834 11.3084 21.0113C10.9795 20.8612 10.6787 20.6556 10.4194 20.4035C9.40028 19.4468 8.95 18.3796 9.08912 17.2465Z" fill="black"/>
<path fill-rule="evenodd" clip-rule="evenodd" d="M21.1963 18.6364C20.8974 18.7906 20.6036 18.9349 20.322 19.0553C20.4875 19.3687 20.6842 19.6508 20.9106 19.9006C21.5955 20.4499 22.2335 20.3757 22.9109 19.7398C23.7226 18.977 24.0659 18.1935 23.9589 17.3457C23.4691 17.4917 22.9579 17.7259 22.4458 17.9849C22.6037 18.053 22.739 18.1646 22.8361 18.3068C22.9332 18.4489 22.9881 18.6157 22.9944 18.7878C23.0006 18.9599 22.958 19.1303 22.8715 19.2791C22.7851 19.4279 22.6582 19.5491 22.5057 19.6286C22.3532 19.7081 22.1813 19.7427 22.01 19.7283C21.8387 19.7138 21.675 19.651 21.5379 19.5471C21.4008 19.4432 21.296 19.3025 21.2355 19.1413C21.175 18.9801 21.1614 18.805 21.1963 18.6364ZM19.2544 19.3819C18.6946 19.4594 18.2188 19.3242 17.8755 18.8211C20.1467 19.5031 25.937 11.8813 26.6276 18.2521C26.1633 17.4538 25.5484 17.1742 24.8545 17.1899C25.0158 18.3444 24.568 19.4306 23.5316 20.4037C23.2377 20.6791 22.9414 20.882 22.6426 21.0115C23.1605 21.1837 23.6983 21.2884 24.2429 21.3232C21.9174 21.7603 20.2545 21.1129 19.2544 19.3819ZM17.4211 17.114C17.0812 18.0245 17.7619 18.4789 18.3299 18.365C17.7619 18.2512 17.4211 17.7482 17.4211 17.114Z" fill="black"/>
<path d="M16.9754 8.81093C19.9227 8.81093 22.3121 7.79222 22.3121 6.53559C22.3121 5.27896 19.9227 4.26025 16.9754 4.26025C14.028 4.26025 11.6387 5.27896 11.6387 6.53559C11.6387 7.79222 14.028 8.81093 16.9754 8.81093Z" fill="#EE6344"/>
<path fill-rule="evenodd" clip-rule="evenodd" d="M117.147 29.6535L115.391 29.4738L115.22 29.5637C114.503 29.3847 113.977 29.1216 113.642 28.7736C112.882 28.1493 112.503 27.6825 112.503 27.3733C112.503 27.3188 112.443 27.083 112.324 26.664V26.5832L112.413 26.4034C112.338 26.4034 112.164 26.1709 111.893 25.7033V25.4426C111.893 25.3833 112.096 25.2068 112.502 24.9132L112.413 24.4736C113.438 23.7133 114.14 23.3331 114.52 23.3331V23.423C114.52 23.6564 114.314 24.124 113.902 24.8241V24.9132C114.026 24.9132 114.349 25.0006 114.87 25.1738L116.359 25.0031V25.0922C116.745 25.0336 117.126 24.944 117.497 24.8241L118.107 24.9132C118.954 24.7779 120.006 24.251 121.264 23.3331C121.621 23.0345 121.972 22.5678 122.313 21.9327C122.606 21.6227 122.752 21.3299 122.752 21.0528C119.503 20.3518 117.752 19.9122 117.497 19.7333C117.497 19.8529 117.437 19.9122 117.319 19.9122C115.263 19.4182 114.067 18.9515 113.73 18.5119C113.482 18.5119 113.042 18.2191 112.413 17.632C112.261 17.6155 111.942 17.2361 111.453 16.4922C111.313 16.4922 111.166 16.2885 111.014 15.8811C110.781 15.8811 110.664 15.5875 110.664 15.0012C110.664 14.0239 110.954 13.1745 111.534 12.4529C111.858 11.8905 112.273 11.3865 112.763 10.9618C113.039 10.6855 113.216 10.3944 113.292 10.0901C114.186 9.44437 114.712 9.12109 114.87 9.12109C116.188 9.25717 117.15 9.49056 117.757 9.82209C119.102 10.5379 119.775 11.2117 119.775 11.8409V12.5419H119.596V12.631L119.685 12.8108L119.247 12.8924C119.056 12.8924 118.62 12.659 117.937 12.1914C116.928 12.6038 116.315 12.8974 116.098 13.0714C116.049 13.3485 115.67 13.6982 114.959 14.122C114.959 14.2194 114.666 14.513 114.081 15.0012C113.728 15.5331 113.552 15.8539 113.552 15.9628C114.723 16.4889 116.651 17.0159 119.335 17.5429C121.766 18.1284 123.254 18.7156 123.802 19.302C125.559 20.1761 126.438 20.8466 126.438 21.3134H126.258C126.258 21.1608 125.938 20.8714 125.299 20.4417H125.119V20.5233C125.385 21.2408 125.794 21.7101 126.348 21.9327C126.348 22.0086 126.494 22.2717 126.787 22.722C126.668 22.7385 126.608 22.7962 126.608 22.8935L126.698 23.6836C126.698 24.1289 126.348 24.4786 125.648 24.7342C125.648 24.9239 125.385 25.2175 124.859 25.6142C124.859 25.907 124.39 26.3168 123.451 26.843C123.451 26.9576 123.073 27.3081 122.313 27.8945C122.14 27.9646 122.053 28.0545 122.053 28.1625H121.963L121.793 28.0734C121.793 28.4965 121.237 28.9064 120.125 29.303C120.125 29.1241 120.065 29.0342 119.946 29.0342C119.757 29.3006 119.436 29.4771 118.986 29.5637L118.457 29.4738H118.286C118.164 29.4721 118.043 29.5031 117.937 29.5637L117.757 29.4738C117.651 29.5346 117.53 29.5657 117.408 29.5637L117.237 29.4738L117.147 29.6535H117.147ZM134.06 28.6845H133.881C133.279 28.6845 132.869 28.5971 132.652 28.4239L132.302 28.5138C132.211 28.5138 132.036 28.3967 131.782 28.1625L131.603 28.245C131.197 28.1518 130.816 27.8021 130.464 27.1935L130.285 27.2834H130.114C128.888 26.2739 128.276 25.601 128.276 25.2629C127.283 23.211 126.787 20.8714 126.787 18.2431C126.744 18.2431 126.654 17.3961 126.519 15.7022H126.608C126.489 15.4028 126.43 15.1991 126.43 15.0919C126.472 14.7381 126.533 14.5616 126.608 14.5616L126.08 12.0207C126.188 12.0207 126.277 11.7568 126.348 11.2307C126.581 11.2307 126.698 11.1713 126.698 11.0517V10.9618H126.787L127.048 11.1416C127.172 11.1416 127.346 10.9651 127.568 10.6113C127.633 10.6113 127.723 10.5816 127.836 10.5223V10.7012L128.276 10.6113C128.276 10.7911 128.303 10.8802 128.358 10.8802C128.438 10.8208 128.585 10.7911 128.796 10.7911C128.796 10.9264 128.972 11.0138 129.326 11.0517V11.1416L129.236 11.3123C129.355 11.3123 129.415 11.3717 129.415 11.4913H129.497C129.556 11.4913 129.792 11.4311 130.204 11.3123H130.464V11.9308L130.285 12.1914L130.554 12.3704L130.285 13.6817C130.307 13.8012 130.366 13.8614 130.464 13.8614C130.405 14.5459 130.375 15.0424 130.375 15.3517V15.4416L130.464 16.3124H130.375L130.464 16.4922V16.5813C130.464 17.5214 130.55 19.2154 130.724 21.6639H130.635C130.695 21.7991 130.814 22.2692 130.993 23.0725L130.903 23.5129C131.018 23.7025 131.074 23.8757 131.074 24.0341L130.993 24.213C131.281 24.213 131.424 24.5058 131.424 25.0922C131.522 25.0922 131.641 25.2653 131.782 25.6142C132.07 25.6142 132.769 24.9132 133.881 23.5129C134.526 22.421 135.169 20.5473 135.809 17.8934V16.6629L135.718 16.0527H135.809L135.718 15.8811C135.718 15.7459 135.749 15.6255 135.809 15.5232C135.635 13.2314 135.549 11.8583 135.549 11.4014C135.762 11.1173 136.03 10.8792 136.337 10.7012V10.4406H136.508V10.6113H136.769C137.067 10.2039 137.329 10.001 137.557 10.001L137.647 10.1718L137.827 10.0901H137.997V10.3507H138.087L138.525 10.2616L139.054 10.6113V10.8802H139.404V10.7012C139.519 10.7614 139.605 10.7911 139.665 10.7911C139.778 10.7309 139.866 10.7012 139.925 10.7012C140.336 11.0806 140.542 11.5482 140.542 12.1015C140.483 12.1015 140.453 12.1321 140.453 12.1914C140.568 12.2137 140.625 12.2731 140.625 12.3704C140.451 12.5065 140.364 12.7102 140.364 12.9815H140.274L140.104 12.452C139.984 12.4735 139.925 12.5337 139.925 12.631V13.8614C139.925 14.4148 139.895 15.0886 139.835 15.8811L139.925 16.3124C139.562 18.6793 139.212 20.2603 138.875 21.0528C138.815 21.0528 138.786 21.0825 138.786 21.1427V21.9327L138.876 22.8044C138.642 22.8044 138.525 23.0403 138.525 23.5129H138.437C138.437 23.7025 138.553 24.3458 138.786 25.4426H138.697L138.786 25.6142V26.0537C138.788 26.1762 138.757 26.2969 138.697 26.4034C138.756 26.5181 138.786 26.6046 138.786 26.664C138.656 26.664 138.51 26.3737 138.347 25.7931H138.265C138.265 25.8467 138.236 25.874 138.176 25.874C138.29 26.4933 138.437 27.1094 138.615 27.7229C138.555 27.8376 138.525 27.9242 138.525 27.9835C138.433 27.9835 138.23 27.37 137.916 26.1436H137.827L137.736 26.3144V26.4034H137.916V26.9329H138.087C138.087 26.9931 138.056 27.0228 137.996 27.0228L138.087 27.1935V27.4541L137.916 27.3733C137.916 27.4269 137.886 27.4541 137.827 27.4541C137.647 27.1069 137.441 26.4636 137.208 25.5243H137.037C136.956 25.5243 136.84 25.7882 136.687 26.3144C136.574 26.3144 136.281 26.6368 135.809 27.2834L135.898 27.4541C135.741 27.6495 135.332 27.826 134.67 27.9835C134.263 28.3208 134.061 28.5542 134.061 28.6845H134.06ZM139.225 30.0931H138.965C138.905 29.6643 138.846 29.4004 138.786 29.303C138.846 29.2057 138.876 29.0589 138.876 28.8635H139.054V29.2132L138.965 29.3847C139.079 29.4441 139.166 29.4738 139.225 29.4738V29.5637L139.054 29.8243C139.168 29.8457 139.225 29.9067 139.225 30.0032V30.0939V30.0931ZM159.758 31.9165L159.408 31.7458C159.325 31.7916 159.234 31.8197 159.14 31.8283L158.789 31.7458C158.709 31.7907 158.62 31.8188 158.529 31.8283C158.529 31.6757 158.323 31.5586 157.911 31.4769C157.781 31.1347 157.548 30.8444 157.212 30.6061C156.864 29.976 156.601 29.0993 156.422 27.9753L156.511 27.7955C156.452 27.6817 156.422 27.5951 156.422 27.5349H156.511C156.408 27.3452 156.292 26.5255 156.161 25.0757H156.252C156.143 24.7227 155.85 21.9748 155.373 16.8336C155.313 16.8336 155.226 16.3636 155.113 15.4251C155.113 15.3649 155.142 15.2774 155.202 15.1636C155.202 14.5558 154.849 13.8821 154.145 13.144C154.145 13.106 153.998 12.6962 153.705 11.9143C153.771 11.6537 153.977 11.45 154.323 11.3041H154.413V11.4748C154.825 11.3601 155.058 11.3032 155.113 11.3032H155.202V11.8327H155.373L155.284 12.0034V12.0933C155.402 12.0933 155.462 12.123 155.462 12.1832L156.162 11.7428H156.251V11.8335C156.192 11.9407 156.161 12.0281 156.161 12.0933C156.221 12.0933 156.252 12.123 156.252 12.1832C156.366 12.123 156.452 12.0933 156.511 12.0933C157.022 12.1263 157.548 12.5931 158.09 13.4945C158.09 13.8796 158.293 14.4659 158.7 15.2535C159.112 19.0059 159.317 21.0528 159.317 21.3942H159.408C160.737 21.2153 161.729 21.1254 162.385 21.1254H162.734C163.261 21.1254 163.524 20.8054 163.524 20.1646H163.614L163.524 19.9856V19.904C163.817 19.904 164.109 18.1474 164.402 14.6342C164.283 14.6342 164.224 14.5773 164.224 14.4635V13.934C164.538 13.934 164.771 13.8474 164.923 13.6734H165.102L165.184 14.113C165.129 14.113 165.102 14.1402 165.102 14.1946L165.272 14.2845C165.272 14.2243 165.303 14.1938 165.363 14.1938L165.272 14.0239V13.9332C165.658 13.9332 165.891 13.7575 165.972 13.4054H166.152C166.152 13.4697 166.181 13.5596 166.241 13.6734L166.412 13.5843H166.501C166.501 13.779 166.531 13.9258 166.591 14.0239L166.761 13.9332C166.881 13.9505 166.94 14.0099 166.94 14.113V14.1946H166.761V14.2845H167.03L167.111 14.113C167.066 14.0302 167.038 13.9389 167.03 13.845H167.201C167.553 14.1542 167.73 14.4173 167.73 14.6342H167.99L168.168 14.5443L168.079 14.3736C168.096 14.2548 168.153 14.1946 168.25 14.1946C168.684 14.1946 168.92 14.2845 168.958 14.4635V14.6342C168.958 14.7538 168.869 14.814 168.689 14.814C168.923 15.4218 169.039 15.802 169.039 15.9537C168.751 17.1165 168.608 18.5762 168.608 20.3361L168.779 20.4252C168.779 20.3658 168.809 20.3361 168.869 20.3361C168.869 20.4549 168.898 20.5143 168.958 20.5143L169.308 20.3361V20.4252C169.308 20.5992 169.075 20.7155 168.608 20.7757V21.3051H169.218L170.357 21.0437C170.357 21.099 170.387 21.1262 170.446 21.1262C170.446 21.0116 170.68 20.925 171.146 20.8648V20.9547C171.146 21.0305 170.767 21.235 170.007 21.5649C170.007 21.7991 169.481 22.0622 168.429 22.3558V22.5348L168.869 22.4449C168.928 22.4449 168.958 22.4746 168.958 22.5348C169.072 22.4746 169.159 22.4449 169.218 22.4449H169.397V22.5348C168.692 22.6214 168.34 22.7385 168.34 22.8844C168.34 23.0585 168.31 23.1459 168.25 23.1459L168.34 23.3248C168.225 23.8188 168.168 24.1091 168.168 24.1957L168.251 24.726C168.251 25.2629 168.077 26.6063 167.73 28.7571H167.551V28.5864H167.469V29.7261H167.201L166.851 29.4655C166.851 29.5637 166.705 29.8267 166.412 30.2556C166.412 30.8799 166.239 31.2304 165.891 31.3062C165.891 31.4794 165.598 31.5668 165.012 31.5668H164.923C164.923 31.3937 164.836 31.3062 164.662 31.3062H164.573V30.6052C164.577 30.4825 164.545 30.3614 164.483 30.2556C164.483 30.1962 164.513 30.1657 164.573 30.1657C164.573 30.0469 164.544 29.9867 164.483 29.9867C164.62 27.7658 164.736 26.6558 164.834 26.6558L164.752 26.4768C164.867 26.0744 164.923 25.7247 164.923 25.4262V24.7252L165.012 24.2856C164.872 24.1718 164.755 24.1149 164.662 24.1149C163.8 24.2881 163.214 24.4324 162.906 24.5462V25.0757C162.754 25.0757 162.55 25.3981 162.296 26.0447L161.506 27.7955C161.393 27.8557 161.305 27.8854 161.246 27.8854V28.5864C161.246 28.7266 161.1 28.9905 160.807 29.3756C160.807 29.7228 160.747 29.8977 160.628 29.8977L160.717 30.0766C160.251 30.5756 160.017 30.8691 160.017 30.9566V31.3961L160.108 31.5668C159.912 31.5668 159.795 31.6831 159.758 31.9165ZM163.963 20.3378C164.239 19.4537 164.443 18.9836 164.573 18.9292C164.52 18.7128 164.433 18.5066 164.313 18.3189L164.484 18.0575H164.402C164.305 18.0575 164.186 18.2612 164.044 18.6686L164.134 19.1082C164.107 19.3415 164.02 19.4587 163.874 19.4587V19.5477L163.963 19.7193H163.784V20.1588C163.806 20.2784 163.866 20.3378 163.963 20.3378ZM166.152 27.53C166.292 27.53 166.38 27.2364 166.412 26.65C166.367 26.5696 166.339 26.4809 166.33 26.3894H166.501V26.0397C166.501 25.9201 166.444 25.8599 166.33 25.8599L166.412 25.4204V24.5487C166.412 24.4893 166.441 24.4588 166.501 24.4588L166.412 24.2798C166.412 24.2204 166.441 24.133 166.501 24.0192L166.33 23.2292C166.384 23.2292 166.412 23.1995 166.412 23.1401H166.241V23.7586C166.243 23.8815 166.212 24.0025 166.151 24.1091C166.151 24.1685 166.181 24.1982 166.241 24.1982L166.151 24.6303V24.8093L166.241 25.4196H166.151L166.241 25.5993V25.7709C166.241 25.8896 166.181 25.9498 166.062 25.9498C166.181 26.1395 166.241 26.316 166.241 26.4793V26.9106L166.151 27.53H166.152ZM165.541 28.32C165.656 27.8804 165.712 27.6165 165.712 27.53C165.712 27.4706 165.682 27.4401 165.622 27.4401L165.713 27.0005V26.0397L165.622 24.9808H165.713L165.622 24.8093V24.199C165.622 24.1388 165.653 24.1083 165.713 24.1083C165.653 24.0332 165.622 23.8262 165.622 23.4898C165.509 23.512 165.452 23.5722 165.452 23.6696V24.2798C165.452 24.6171 165.422 24.8241 165.362 24.8983C165.422 25.2142 165.453 25.4773 165.453 25.6901V28.32H165.541ZM161.596 26.1205C161.596 25.9309 161.799 25.5235 162.205 24.8992L162.646 24.0192V23.8403H162.556C162.22 24.2155 161.957 24.6848 161.767 25.2497C161.729 25.2497 161.612 25.3956 161.417 25.6892V26.1205H161.596ZM159.578 27.53C159.926 27.1498 160.568 26.1832 161.506 24.6303C161.506 24.5759 161.536 24.5487 161.596 24.5487V24.8093H161.767C161.767 24.5652 161.827 24.2716 161.946 23.9302H161.856V24.0192C161.797 24.0192 161.767 23.9895 161.767 23.9302C160.807 24.2823 160.253 24.4588 160.107 24.4588C159.712 24.2856 159.478 24.1982 159.407 24.1982V24.4588C159.407 24.5891 159.435 24.7062 159.489 24.8093C159.489 24.8687 159.462 24.8992 159.407 24.8992C159.462 25.1647 159.519 26.0422 159.578 27.53ZM173.41 31.3178H172.89C172.89 31.204 172.714 31.0869 172.361 30.9673C171.482 30.0337 171.044 27.6066 171.044 23.686C170.989 23.686 170.961 23.5706 170.961 23.3364C170.961 23.2762 170.989 23.2465 171.044 23.2465L170.961 22.8069V22.0169C170.961 21.9624 170.989 21.9352 171.044 21.9352C170.998 21.8523 170.97 21.7607 170.961 21.6664L171.044 19.565H171.133C171.133 19.5057 171.103 19.4751 171.044 19.4751C171.119 18.6834 171.179 18.2158 171.222 18.0748C171.222 18.0146 171.193 17.9849 171.132 17.9849C171.132 17.9255 171.162 17.8381 171.222 17.7243C171.282 16.2481 171.311 15.077 171.311 14.2144C171.311 13.2586 171.195 12.029 170.962 10.5247C171.217 10.0579 171.48 9.82373 171.751 9.82373C172.087 9.82373 172.291 9.97135 172.361 10.2641C172.789 10.3623 173.169 10.655 173.5 11.1441C173.5 11.3008 173.56 11.4748 173.679 11.6653L173.85 11.5828H173.939C174.053 12.3819 174.11 12.8199 174.11 12.8949H174.289V12.7242C174.538 12.7242 174.685 13.1308 174.728 13.9456C174.81 13.9456 174.926 14.3554 175.078 15.1744C175.137 15.1744 175.168 15.2049 175.168 15.2651C175.168 15.3245 175.137 15.3541 175.077 15.3541L175.338 17.1949C175.285 17.455 175.255 17.7194 175.249 17.9849V18.9457C175.249 19.0818 175.221 19.2014 175.167 19.3044C175.213 19.3843 175.241 19.4732 175.249 19.565C175.038 21.7257 174.864 22.8069 174.728 22.8069L174.818 23.4254V25.0056C174.818 25.1359 174.788 25.253 174.728 25.3561C174.789 25.4628 174.82 25.5838 174.818 25.7066V25.7956C174.818 25.9103 174.758 25.9672 174.639 25.9672C174.639 25.9069 174.609 25.8764 174.549 25.8764V25.9672L174.728 26.2269V26.4067L174.378 29.2165L173.939 29.9174C173.745 29.9174 173.568 30.0032 173.41 30.1772C173.41 30.2374 173.44 30.2671 173.5 30.2671L173.41 31.1471V31.3178H173.41ZM145.141 13.3138C145.892 13.0311 146.655 12.778 147.427 12.5551H147.505V12.7036C147.25 12.7184 147.122 12.7704 147.122 12.8603C146.664 12.8883 146.435 12.9906 146.435 13.1654H146.209C146.04 13.1654 145.863 13.2404 145.678 13.3914H145.141V13.3138ZM153.85 24.9025H153.928C153.928 24.7936 153.852 24.6402 153.702 24.4406V24.2147L153.772 24.058L153.32 23.2935C152.447 22.4171 151.473 21.6488 150.418 21.005C149.356 20.3765 148.823 20.0194 148.819 19.9345C148.399 19.7555 147.279 19.0702 145.463 17.8802C144.468 17.3177 143.784 16.7322 143.411 16.1219C143.435 15.9191 143.51 15.8176 143.637 15.8176C143.637 15.4778 145.192 14.927 146.514 14.3835C147.278 14.1757 147.66 13.9983 147.66 13.8524C148.977 13.4128 149.713 13.1316 149.868 13.0087C150.633 12.8388 151.015 12.7118 151.015 12.6261C151.128 12.6261 151.23 12.8058 151.319 13.1654L151.241 13.3138C151.241 13.4178 151.317 13.4697 151.468 13.4697V13.5472C151.317 13.5472 151.241 13.6231 151.241 13.774C151.293 14.0297 151.447 14.3596 151.702 14.7661H151.928L151.85 14.6103H152.077C152.299 13.9489 152.478 13.6182 152.614 13.6182V13.4697C152.614 13.219 152.69 12.9642 152.841 12.7044C152.788 12.6115 152.761 12.5061 152.763 12.3993C152.739 12.2252 152.334 11.8945 151.545 11.408L150.251 11.0253H150.173C149.824 11.0253 149.444 11.1028 149.033 11.2587C147.604 11.5614 146.688 11.8657 146.287 12.1733L146.131 12.0949H145.983C145.723 12.2978 145.392 12.4248 144.992 12.4776L142.324 13.6965C141.224 14.2631 140.613 14.8494 140.49 15.4531C140.49 15.529 140.618 15.8597 140.872 16.4452L140.795 16.6019C140.795 16.644 140.896 16.8708 141.1 17.2823C141.1 17.4192 141.226 17.5726 141.482 17.7425C141.482 17.8893 141.71 18.1936 142.168 18.6562C142.739 19.0018 143.171 19.3325 143.463 19.6483C143.973 19.7382 144.228 19.8661 144.228 20.031C145.228 20.5794 145.787 20.9357 145.905 21.1014C147.272 21.8646 148.595 22.7044 149.868 23.6168C150.732 24.0605 151.164 24.3672 151.164 24.538C150.639 24.9586 149.089 25.2893 146.514 25.5301C146.514 25.4781 146.487 25.4517 146.435 25.4517C146.343 25.5046 146.238 25.5317 146.131 25.5301H143.159C142.348 25.5301 141.941 25.8352 141.941 26.4438V26.6714C142.135 26.6714 142.262 26.8504 142.324 27.2091L142.776 27.5143C142.994 27.6652 143.147 27.7411 143.237 27.7411C143.525 27.9439 143.727 28.0454 143.846 28.0454C143.846 28.3052 144.329 28.4849 145.296 28.5847V28.6548L145.218 28.8107C145.634 28.8107 145.888 28.8602 145.984 28.9592H146.209L146.669 28.889L146.817 28.96C147.455 28.91 148.09 28.8343 148.721 28.7332C148.721 28.7851 148.748 28.8107 148.8 28.8107C149.843 28.6785 150.867 28.4216 151.85 28.0454C152.176 27.9703 152.456 27.6396 152.692 27.0541H153.223L153.379 26.5222V26.2888C153.379 26.17 154.006 25.2373 153.851 24.9025H153.85Z" fill="black"/>
<path d="M73.2864 21.0701L73.3103 21.0536C73.3185 21.1014 73.3481 21.1212 73.3959 21.1122C73.3572 20.9109 73.4304 20.5959 73.6165 20.1662C73.6527 20.0673 73.6535 19.9296 73.6198 19.7531L73.5901 19.5989L73.5111 19.6145C73.4444 19.6277 73.3613 20.0269 73.2633 20.8103L73.0263 20.8582L73.0872 21.174L73.1662 21.1575L73.2057 21.1295C73.2032 21.301 73.144 21.673 73.0263 22.2428L73.0394 22.7376L73.0534 22.811L73.1324 22.7945C73.2477 21.7175 73.3028 21.1584 73.2954 21.1196L73.2864 21.0701ZM74.4331 14.9303C74.443 14.7101 74.4882 14.5921 74.5705 14.5756L74.6488 14.5591C74.6823 14.7045 74.7652 14.8336 74.8834 14.9245L74.9023 15.0251C74.931 15.0069 74.9624 14.9936 74.9953 14.9855L75.0118 15.0663C74.9215 15.5938 74.8616 16.1261 74.8323 16.6605L74.9113 16.644C75.0307 16.6209 75.1056 16.1681 75.1353 15.2857C75.4456 15.223 75.6374 14.6903 75.7082 13.6883L75.8662 13.6561C75.8876 13.7691 75.8506 14.1336 75.7551 14.7488C75.8843 14.7224 75.9807 14.8123 76.0449 15.0185L76.0424 15.4317C76.1247 15.5776 76.193 15.6461 76.2457 15.6354L76.2894 17.1083C76.3206 17.2699 76.4128 17.3359 76.5651 17.3045L76.5791 17.3788C76.617 19.2599 76.5528 21.4396 76.3873 23.9186C76.2153 24.839 75.8819 26.1684 75.3855 27.9085C75.0035 28.9732 74.7862 29.5117 74.7335 29.5224L74.2972 29.7698C74.2742 29.6527 74.1293 29.5999 73.8643 29.6131C73.8881 29.741 73.6469 29.8704 73.1415 30.0032C72.9255 29.7347 72.636 29.5352 72.3084 29.4292C72.2944 29.3558 72.2006 29.2932 72.0269 29.242L71.9553 29.2569L71.9858 29.4177C71.5454 29.0895 71.3182 28.8882 71.3042 28.8148C70.2637 27.3023 69.6743 26.1865 69.5368 25.4657C69.3514 24.7309 69.1325 24.0049 68.8807 23.2902L68.9301 23.1203L68.4988 21.7249L68.5778 21.7084L68.4683 21.5633L68.1942 20.1366L67.9719 19.3638L67.6558 19.4273C67.6805 19.5543 67.6278 19.8372 67.4986 20.2768L67.6558 20.2446C67.6171 20.8689 67.6114 21.254 67.6394 21.4016C67.6871 21.3917 67.7167 21.414 67.7266 21.4676C67.5595 21.5014 67.5274 21.8923 67.6311 22.6403L67.7859 23.0222C67.7595 23.3224 67.697 23.5541 67.599 23.7166C67.6089 23.7702 67.6402 23.7924 67.6937 23.7817C67.7324 24.5577 67.7208 25.0542 67.6583 25.2703C67.7126 25.3348 67.7524 25.4101 67.7752 25.4913C67.6212 25.8286 67.5307 26.6129 67.5035 27.8458C67.4517 28.4066 67.3998 28.6919 67.3471 28.7018L67.1175 28.748C67.0047 29.3773 66.8285 29.7154 66.589 29.7641C66.4721 29.5686 66.3749 29.4779 66.2992 29.4936L66.1412 29.5257L65.7674 29.6775C65.7222 29.4416 65.4604 29.3311 64.9813 29.3468L64.9838 28.9336C64.9336 28.6689 64.8051 28.5567 64.5993 28.5988L64.508 28.1204C64.4586 27.8598 64.3038 27.7567 64.0462 27.8087C63.8165 26.6129 63.8502 24.5479 64.1482 21.6152C64.1375 21.5616 64.1063 21.5402 64.0536 21.5509L64.0519 20.7262L64.2256 20.7757L64.1342 20.2974C64.3104 20.2611 64.368 20.003 64.3055 19.5213L64.2001 18.9696C64.3195 18.9449 64.3606 18.7461 64.3236 18.3717L64.1902 18.0624C64.2075 17.8967 64.2429 17.8076 64.2956 17.7969C64.2857 17.7433 64.2544 17.721 64.2009 17.7317C64.1682 17.3482 64.1768 16.9622 64.2264 16.5805C64.1687 16.5152 64.126 16.4381 64.1013 16.3545C64.1641 16.2999 64.2376 16.2589 64.317 16.2341C64.2388 16.1129 64.1375 15.858 64.0141 15.4704C64.0799 15.4564 64.1532 15.2766 64.2306 14.9303C64.1739 14.8667 64.1318 14.7916 64.1071 14.7101L64.1853 14.6944L64.0758 14.5484C64.1293 13.1431 64.0725 11.5902 63.9062 9.89218C64.0725 9.75199 64.2684 9.6588 64.494 9.61344L64.7236 9.56726C64.7755 9.55653 64.8076 9.5788 64.8175 9.63323L64.9599 9.51942C65.5345 9.74044 65.8613 10.0588 65.9411 10.4761L66.0827 10.3631L66.3132 10.3169L66.3288 10.3977L66.286 10.5668L67.0541 10.4117L67.9991 10.7177L68.1012 10.8579L67.8707 10.9049L67.8871 10.9849C68.0979 11.5185 68.4148 12.0578 68.8379 12.6046C69.5047 13.5646 69.9533 14.6532 70.1863 15.8704L70.3995 16.9804C70.5575 16.9483 70.8695 17.7359 71.3363 19.3432L71.4128 19.7407C71.4235 19.7943 71.4021 19.8265 71.3494 19.8372L71.4581 19.9757C71.505 20.2207 71.4787 20.6388 71.3774 21.2293C71.6491 21.5311 71.8277 21.9055 71.9125 22.3509L71.9446 22.5133L72.0944 22.4828C72.1998 22.4614 72.2632 22.0919 72.2854 21.3752L72.3636 21.3588L72.2541 21.2136L72.2088 20.9777C72.4188 20.5431 72.4706 19.2706 72.3636 17.1578C72.4533 16.9004 72.5159 16.3966 72.5505 15.6461C72.7892 14.5583 73.0287 13.8507 73.2691 13.5225L73.3481 13.506L73.3794 13.6685L73.33 13.8384L73.5029 13.8878L73.5819 13.8713L73.5671 13.7913L73.409 13.8227L73.4584 13.6528L73.4428 13.5712C73.4321 13.5175 73.4016 13.4961 73.3481 13.5068C73.383 13.3995 73.3893 13.2849 73.3662 13.1745L73.5169 13.144L73.5218 13.5563C73.6889 13.5217 73.8289 13.1374 73.9416 12.4017L73.9252 12.3209L74.0923 12.3712L74.0766 12.2904C74.024 12.3011 73.9927 12.2789 73.982 12.2252C74.0635 12.2088 74.159 12.137 74.2684 12.0075C74.2775 12.057 74.3063 12.076 74.354 12.0661C74.5961 11.361 74.871 10.9775 75.1772 10.9156L75.2563 10.8991L75.3163 11.2158L74.7731 12.1502L74.6059 12.0999L74.3697 12.1477L74.3853 12.2285L74.694 12.1659L74.7245 12.3283C74.4232 12.6994 74.2791 12.9196 74.2923 12.9881C74.1194 13.7716 73.9186 15.5133 73.6914 18.2117L73.7062 18.2934L73.7778 18.2785C73.982 17.7342 74.0865 17.025 74.0939 16.1525L74.3475 14.9484L74.4331 14.9303ZM74.5319 15.0894L74.5747 15.3146L74.6537 15.2989L74.6142 15.096C74.5869 15.0918 74.5594 15.0896 74.5319 15.0894ZM82.1504 28.6161C82.1216 29.0062 82.0294 29.5975 81.8738 30.3925L81.7364 31.0918C81.6565 31.4992 81.561 31.6914 81.4499 31.6691L81.3651 32.5655L81.2622 33.0868C80.9494 34.0615 80.5666 34.652 80.1139 34.8574C79.9929 34.9539 79.7764 35.0264 79.4677 35.0784L79.4306 35.0916C79.1886 35.2953 79.3606 35.24 79.1631 35.4429C79.0964 35.4726 78.9425 35.4883 78.707 35.4907V35.4924C78.5638 35.5575 78.3819 35.5732 78.1604 35.5394C77.8962 35.8586 77.6921 36.0507 77.5488 36.1142L76.6853 36.1051C75.9 36.1992 74.9221 36.2165 73.7523 36.1579C72.8517 35.7101 71.7857 35.3778 70.5534 35.16C69.9401 34.6801 69.3944 34.4393 68.9153 34.4376C68.8 34.1688 67.9801 33.5923 66.4556 32.7074C65.9469 32.4163 65.6407 32.2942 65.5369 32.3412C65.1533 31.9272 64.8866 31.754 64.7385 31.8217L64.5985 31.4943C66.0531 32.0781 66.8343 32.3462 66.9429 32.2967L66.9075 32.2134L66.1774 31.853L66.1445 31.7771L66.2268 31.74C66.2416 31.7755 66.7042 31.961 67.6163 32.2975C68.5276 32.6332 69.2964 32.8022 69.9229 32.8039C70.4308 32.902 70.7567 32.9177 70.9 32.8534L70.9815 32.8163C71.0704 32.7767 71.0992 32.7 71.0687 32.587C68.9252 32.0344 67.7867 31.6015 67.6525 31.2873L67.5323 31.4415C67.3694 31.5157 67.2055 31.3615 67.0425 30.9813L66.887 31.0514L66.9553 31.2114L66.873 31.2485C66.7792 31.0283 66.6577 30.821 66.5116 30.6316L66.6746 30.5574L66.7108 30.6407C69.4965 31.6592 71.4112 32.1961 72.4566 32.2513C72.4566 32.2513 75.3929 32.9127 76.7569 32.1144C79.2149 30.6745 78.5844 20.9142 78.5844 20.9142L78.7762 18.1243C78.8034 16.159 78.6214 14.0544 78.2296 11.8104C78.0419 11.309 77.2846 9.33634 77.3653 8.92977C77.4912 8.65102 77.604 8.52154 77.7052 8.54216L77.9596 8.59494C77.9818 8.48113 78.0222 8.43 78.0806 8.44155L78.5087 8.53061L78.5268 8.44072L79.1046 8.65267L79.089 8.73514C78.9194 8.69968 78.8231 8.74173 78.8001 8.86132L78.9919 8.80771L79.0717 8.8242L79.0536 8.91327L78.8363 9.14006C78.8198 9.22666 78.8865 9.33057 79.0396 9.45345L79.2141 9.48891C79.2446 9.33139 79.3524 9.23243 79.5368 9.19119L79.5533 9.10955L79.8941 9.17965C79.876 9.27201 80.1904 9.639 80.835 10.2806C81.3445 10.9156 81.817 11.8352 82.2533 13.0376C82.6731 14.8239 82.8444 15.924 82.7637 16.3364L82.6756 16.3174C82.7785 17.3103 82.8468 18.4789 82.8806 19.8248C82.7999 19.9271 82.753 20.0104 82.7406 20.0755C82.9151 20.111 82.9604 20.638 82.8765 21.654L82.7563 21.8066L82.6493 24.1652C82.4517 24.5759 82.3455 24.8249 82.3282 24.9124L82.3118 25.4591L82.3916 25.4756L82.5842 25.422L82.5488 25.601L82.4278 25.7544C82.4855 25.7659 82.5101 25.8022 82.4978 25.8616C82.4402 25.85 82.4048 25.8731 82.3932 25.9333L82.5645 25.9688C83.302 24.8967 83.8346 24.0308 84.1639 23.3743C84.1639 23.2473 84.3393 23.0395 84.6908 22.7517L85.9947 19.8034C85.9354 19.7704 85.905 19.5601 85.905 19.1725C86.3165 18.2818 86.5775 17.8357 86.6911 17.8357C87.1183 16.8831 87.8172 14.8536 88.7902 11.7486L89.5755 9.87157C89.5163 9.75446 89.4866 9.66622 89.4866 9.60519C89.7023 9.60519 90.0217 9.33716 90.4423 8.80029H90.7988L90.8803 9.15656H90.9692C91.0877 9.15656 91.147 9.09635 91.147 8.9743L92.0146 9.06501H92.1924C92.1924 9.24315 92.2492 9.33139 92.3628 9.33139H92.4517C92.4517 9.15408 92.511 9.06584 92.6304 9.06584H92.7193C92.8329 9.08233 92.8897 9.14254 92.8897 9.2481L93.0675 9.15738H93.149V9.51365H93.3268C93.4404 9.51365 93.4972 9.45345 93.4972 9.33222V9.2481L93.4157 9.06584L93.8536 8.9743H94.024L93.9343 9.15656V9.42293C94.0528 9.42293 94.1129 9.54169 94.1129 9.78003H94.8093C94.8093 9.84105 94.7797 9.87074 94.7204 9.87074C94.7476 10.1701 94.8357 10.3194 94.9879 10.3194V10.8513C95.0201 11.488 95.1929 11.9358 95.5065 12.1964C95.5065 12.2244 95.5955 12.523 95.7733 13.0937L95.9437 13.0021H96.0334L96.3808 14.3464C96.5536 14.3464 96.6401 14.5245 96.6401 14.8791C96.5816 14.8791 96.5512 14.9096 96.5512 14.9698L96.7298 15.0614V14.9707C96.6705 14.9707 96.6401 14.9401 96.6401 14.8791H96.9076C96.9134 15.2164 97.0862 15.8729 97.4262 16.8477C97.3669 17.1742 97.3373 17.4118 97.3373 17.561L97.5151 17.6526C97.5151 17.5915 97.5456 17.5619 97.6048 17.5619C97.6048 17.6831 97.7777 18.0707 98.1234 18.7239C99.9221 18.5465 101 18.4583 101.356 18.4583V18.6414H101.177L101.266 19.0809L99.5245 19.6211L99.606 19.8034C99.606 20.0862 99.3467 20.2627 98.8281 20.3353V20.426H98.9977V20.6091L98.8281 20.8747V21.0495C99.2423 22.3816 99.6205 23.7247 99.9624 25.0773C99.9624 25.1713 100.019 25.2901 100.132 25.4344V25.5251C100.132 25.5861 100.103 25.6158 100.043 25.6158L100.829 27.9423C100.775 27.9423 100.749 27.9728 100.749 28.033C100.996 28.033 101.256 28.955 101.526 30.799C101.331 30.799 101.189 30.9475 101.097 31.2469H100.57C100.57 31.4299 100.424 31.5215 100.132 31.5215C99.927 31.3161 99.4035 31.0761 98.5606 30.799C98.5606 30.705 98.1259 30.5269 97.2566 30.2679C97.2566 30.2011 97.0805 30.051 96.7298 29.8193V29.6362L97.3373 29.7269H97.6048C97.7176 29.7269 97.7744 29.6692 97.7744 29.5538C97.7744 29.3641 97.2237 27.9027 96.1223 25.1688C96.1223 24.8027 95.8301 23.8782 95.2464 22.3946C94.1294 22.755 92.9086 23.023 91.5849 23.2003C91.5849 23.1393 91.5553 23.1096 91.496 23.1096C91.496 23.2861 91.3207 23.4048 90.9692 23.4659C89.9814 23.6984 89.4866 24.0275 89.4866 24.4538C89.1195 25.6496 88.7704 26.4826 88.4412 26.9535V27.2281C88.614 27.2281 88.7005 27.2858 88.7005 27.4021V27.4937L88.5301 27.4029H88.3523C88.1794 27.8673 88.093 28.1658 88.093 28.2994L87.9143 28.2087C87.9143 28.3629 87.739 28.5427 87.3875 28.7472C87.3875 28.8585 87.0698 29.3954 86.4326 30.3587L86.254 30.4411H86.0836L85.7354 30.1764H85.6465C85.5329 30.1929 85.4761 30.2539 85.4761 30.3587C85.5216 30.4404 85.5491 30.5309 85.5567 30.6242L85.3872 30.7157C85.3114 30.6547 85.1649 30.625 84.9492 30.625C84.9492 30.8015 84.834 30.8898 84.601 30.8898L83.2 29.9108C82.8402 29.9108 82.4912 29.4787 82.1504 28.6161ZM82.4533 26.1296L82.4566 26.1247C82.4533 26.1239 82.45 26.1231 82.4468 26.1222C82.4493 26.1246 82.4515 26.1274 82.4533 26.1304V26.1296ZM53.0196 29.5645C51.9717 29.5034 51.4482 29.2659 51.4482 28.8511C51.3025 28.8511 51.1568 28.7893 51.0102 28.668C51.0102 28.7291 50.9814 28.7587 50.9213 28.7587C50.9213 28.687 50.6892 28.4495 50.2249 28.0446C50.2249 27.7897 49.9928 27.5217 49.5285 27.2397C48.9934 26.918 48.2666 25.6365 47.3487 23.3941C47.1577 23.1195 47.0441 23.0914 47.0088 23.3083C47.0631 23.7627 47.0894 24.2831 47.0894 24.8703C47.0894 24.9585 47.0631 25.0023 47.0088 25.0023L47.0894 25.1853V25.7255C47.0894 25.841 47.0326 26.1379 46.9198 26.6137L47.0894 26.5312C47.1495 27.1456 47.1783 27.5027 47.1783 27.6025H47.0894L47.1783 27.7765V28.4074L47.2681 28.8561C47.1495 28.8561 47.0894 28.9451 47.0894 29.1224C47.0894 29.1719 47.1191 29.4094 47.1783 29.8366L46.2234 30.1937C45.8719 30.1937 45.6966 29.8968 45.6966 29.3047H45.518C45.4673 29.5088 45.44 29.7179 45.4365 29.9282H45.3476C45.3476 29.5513 45.0562 29.3129 44.4725 29.2132C44.4725 28.8148 44.3268 28.3357 44.0354 27.7765C43.9218 27.8376 43.8354 27.8681 43.7761 27.8681V27.9588H43.9539V28.0503C43.9539 28.1064 43.9243 28.1336 43.865 28.1336L43.9539 28.3159V28.499C43.4847 28.0668 43.2493 27.2619 43.2493 26.0826C43.3678 24.8538 43.4279 23.973 43.4279 23.4411C43.4279 22.816 43.3678 22.2651 43.2493 21.7892C43.2493 21.734 43.2789 21.4957 43.3382 21.0751C43.3382 20.9975 43.3085 20.6982 43.2493 20.1778L43.3382 19.7292C43.2789 19.6302 43.2493 19.4801 43.2493 19.2813H43.3382C43.2246 18.9655 43.139 18.5202 43.0789 17.9445H43.1686C42.45 14.1839 41.8104 12.3052 41.2481 12.3052L41.0703 11.6818V11.5911C41.0868 11.469 41.1452 11.4088 41.2481 11.4088H41.3288L41.5074 11.4995C41.5074 11.4385 41.5371 11.4088 41.5963 11.4088L41.5074 11.234C41.5239 11.1119 41.5799 11.0509 41.6778 11.0509C41.7906 11.1119 41.8803 11.1424 41.9445 11.1424C41.9445 11.0542 42.031 10.9651 42.2047 10.8769C42.5553 11.1259 42.7307 11.3948 42.7307 11.6818C42.8986 11.6818 43.1604 11.5333 43.5168 11.234L43.7621 11.2257C43.7621 11.4632 43.9943 11.582 44.4585 11.582V11.7651H44.2807V11.8475C44.5935 11.8475 44.8257 11.9391 44.9771 12.1222L44.8956 11.9391V11.8484H45.066C45.066 11.9531 45.2422 12.222 45.5929 12.6541C46.635 15.2832 49.6413 19.6986 51.1 25.1796C51.2234 25.1796 51.3403 25.4484 51.4482 25.9853C52.0318 25.3379 52.5554 23.3388 53.0205 19.9898C53.0205 19.9337 52.9908 19.9073 52.9307 19.9073C53.0336 18.4723 53.1793 17.7548 53.3687 17.7548C53.3687 17.8225 53.3983 17.9107 53.4576 18.0212C53.339 18.2595 53.2789 18.5886 53.2789 19.01C53.2789 19.142 53.3094 19.2616 53.3687 19.3671C53.3094 20.059 53.223 20.5959 53.1094 20.9777C53.1686 21.3926 53.2551 21.6004 53.3687 21.6004H53.4576C53.4576 21.3629 53.5152 21.2433 53.6271 21.2433V20.3551C53.693 20.3551 53.7819 20.3246 53.8955 20.2636C53.8354 20.1366 53.7761 19.8677 53.7169 19.4578C53.8305 19.3968 53.9169 19.3671 53.9762 19.3671L53.8955 18.9185C53.949 18.9185 53.9762 18.888 53.9762 18.8269H53.8058V18.6529C54.0379 18.6529 54.154 17.966 54.154 16.5928C54.2355 16.1887 54.3219 15.9207 54.4133 15.7871C54.3005 15.7871 54.2437 15.6989 54.2437 15.5216V14.5336H54.154V14.4511C54.154 14.3893 54.1844 14.3587 54.2437 14.3587L54.154 14.1765C54.2898 14.0437 54.405 13.6561 54.503 13.0137L54.4133 12.8396C54.5326 12.6178 54.5919 12.3795 54.5919 12.1255L54.503 11.9424H54.6808V11.8508H54.503V11.6768C54.7609 11.0877 55.1864 10.5877 55.7263 10.2394C56.2498 10.34 56.5124 10.4588 56.5124 10.5973V10.7796C55.8637 11.0459 55.3402 11.5523 54.9401 12.2995L55.029 12.4826L54.7615 14.4503H54.9401L54.7615 14.7158C54.7615 14.8486 54.7919 14.9682 54.8512 15.0729L54.6808 15.5216L54.7615 15.9702L54.6808 16.1442L54.7615 16.6844V16.9499C54.6487 17.5313 54.5919 17.8604 54.5919 17.9379C54.5919 18.0707 54.6215 18.1903 54.6808 18.295C54.5623 18.5944 54.4734 18.7436 54.4133 18.7436L54.503 18.9185C54.503 19.217 54.4454 19.3671 54.3326 19.3671L54.4133 19.5494L54.2437 19.8149C54.303 20.1415 54.3326 20.3798 54.3326 20.5291C54.2733 20.5291 54.2437 20.5596 54.2437 20.6198H54.4133C54.4133 20.0227 54.5598 19.4554 54.8512 18.9185L54.7615 18.3866V18.2958C55.0002 18.2958 55.1187 18.0567 55.1187 17.5808H55.1994L55.1187 17.3986C55.2537 17.2048 55.3402 16.9367 55.3781 16.5928C55.3188 16.4939 55.2883 16.3438 55.2883 16.1442H55.3781L55.2883 15.9702L55.467 15.6964V15.6131C55.4705 15.4882 55.4397 15.3646 55.3781 15.256C55.4908 14.8354 55.5773 14.6243 55.6365 14.6243C55.5773 14.5468 55.5476 14.3975 55.5476 14.1765C55.6077 14.1765 55.6365 14.1484 55.6365 14.094L55.5476 13.7278C55.6291 13.4565 55.7452 13.3097 55.8958 13.2875L55.8152 13.1052C55.8703 12.9944 55.898 12.8719 55.8958 12.7481H56.0745C56.025 13.3421 55.9953 13.9376 55.9856 14.5336V15.1645C55.8127 15.1645 55.7263 15.2222 55.7263 15.3385C55.8991 15.3385 55.9856 15.6378 55.9856 16.2357H56.0745C56.3066 15.7764 56.4227 15.5075 56.4227 15.43C56.3634 15.3146 56.3338 15.2255 56.3338 15.1645L56.4227 14.2672C56.3634 14.1517 56.3338 14.0627 56.3338 14.0016C56.5124 14.0016 56.6013 13.8829 56.6013 13.6446H56.7709V13.727C56.5387 14.9566 56.4227 16.9862 56.4227 19.8149H56.3338C56.3338 19.876 56.3634 19.9065 56.4227 19.9065L56.3338 20.3551V20.5283L56.682 20.3551V20.4376C56.5684 21.6499 56.3066 23.4997 55.8958 25.9853C55.8958 26.6995 55.4612 27.6842 54.5919 28.9418C54.5919 29.3072 54.0675 29.515 53.0196 29.5645ZM60.7164 27.4763H60.1978C60.1978 27.3609 60.0216 27.2413 59.6709 27.1193C58.7959 26.1667 58.358 23.6926 58.358 19.6953C58.3036 19.6953 58.2773 19.5766 58.2773 19.3382C58.2773 19.2772 58.3036 19.2467 58.358 19.2467L58.2773 18.7981V17.9923C58.2773 17.9371 58.3036 17.9099 58.358 17.9099C58.3127 17.8248 58.2852 17.7313 58.2773 17.6353L58.358 15.4927H58.4477C58.4477 15.4317 58.4181 15.402 58.358 15.402C58.4337 14.5938 58.493 14.1171 58.5366 13.9728C58.5366 13.9118 58.507 13.8821 58.4477 13.8821C58.4477 13.8202 58.4773 13.732 58.5366 13.6157C58.5959 12.1106 58.6255 10.9173 58.6255 10.0365C58.6255 9.06254 58.5103 7.80818 58.2773 6.27507C58.5308 5.7984 58.7926 5.56006 59.0626 5.56006C59.3976 5.56006 59.601 5.71015 59.6709 6.00869C60.0974 6.10848 60.4752 6.40785 60.8053 6.90596C60.8053 7.06595 60.8646 7.24409 60.9831 7.43707L61.1535 7.3546H61.2424C61.356 8.16857 61.4128 8.61391 61.4128 8.6906H61.5906V8.51742C61.8392 8.51742 61.9857 8.93224 62.0285 9.76271C62.1092 9.76271 62.2261 10.1808 62.3767 11.0162C62.436 11.0162 62.4657 11.0468 62.4657 11.1078C62.4657 11.1688 62.436 11.1993 62.3767 11.1993L62.636 13.0763C62.5768 13.398 62.5471 13.666 62.5471 13.8821V14.8618C62.5497 14.9884 62.5217 15.1137 62.4657 15.2271C62.5116 15.3088 62.5394 15.3993 62.5471 15.4927C62.3364 17.6963 62.1635 18.7981 62.0285 18.7981L62.1174 19.429V21.0404C62.1197 21.1652 62.089 21.2884 62.0285 21.3975C62.0889 21.5067 62.1196 21.6298 62.1174 21.7546V21.8453C62.1174 21.9624 62.0582 22.0202 61.9396 22.0202C61.9396 21.9591 61.9092 21.9294 61.8499 21.9294V22.0202L62.0285 22.2857V22.4688L61.6803 25.3338L61.2424 26.048C61.0481 26.048 60.872 26.1362 60.7156 26.3135C60.7156 26.3746 60.7452 26.4042 60.8053 26.4042L60.7156 27.3023V27.4763H60.7164ZM74.6339 14.3472L74.5549 14.3637C74.545 14.3101 74.5039 14.2367 74.4314 14.1443C74.5895 14.1122 74.6529 14.0157 74.6208 13.854L74.6932 13.8392L74.7401 14.0816C74.6397 14.1023 74.6043 14.1913 74.6339 14.3472ZM53.358 17.6047H53.2691C53.1884 17.6047 53.1019 17.5157 53.0098 17.3384V17.1652C53.0098 17.1033 53.0394 17.0728 53.0987 17.0728L53.0098 16.8906C53.1283 16.6967 53.1884 16.5194 53.1884 16.3586H53.358V16.4411L53.2691 16.8906C53.3283 17.1231 53.358 17.3606 53.358 17.6047ZM88.8289 15.4391C88.9532 15.411 89.0693 15.2618 89.1779 14.9905C89.1224 14.8798 89.0944 14.7572 89.0964 14.6334C89.2314 14.6334 89.4932 14.1262 89.8826 13.1134L89.7937 12.9304V12.8396C90.1122 12.4685 90.2851 11.9622 90.3123 11.3197H89.9632V11.5028H90.1419C89.2668 13.4013 88.8289 14.7134 88.8289 15.4391ZM72.939 25.3684C73.0444 25.0922 73.097 24.8093 73.097 24.519C73.1967 24.4992 73.3201 24.171 73.4675 23.5351L73.3769 23.0651L73.2979 23.0807L73.3432 23.3158L73.1925 23.3463L73.1613 23.1846L73.2674 22.9191L73.251 22.8383C73.1473 22.9702 73.0551 23.0453 72.9736 23.0618C73.046 23.1541 73.088 23.2275 73.097 23.2811L72.7546 24.8324L72.6756 24.8489L72.7513 25.2447C72.7859 25.3453 72.8485 25.3866 72.939 25.3684ZM91.2877 20.3724C91.5841 20.3724 92.5464 20.1349 94.1714 19.6582V19.5675C94.1714 19.4397 93.7639 18.1573 92.9481 15.722V15.6395C92.6732 16.0098 92.3809 16.6654 92.0731 17.6072C91.943 18.4319 91.7109 19.2343 91.3766 20.0153H91.2877V20.3724ZM99.0964 24.8975V24.8068C99.0964 24.7342 99.0668 24.4382 99.0075 23.9178L99.0964 23.4692C99.0372 23.4692 99.0075 23.4386 99.0075 23.3784L98.8371 23.4692H98.6593C98.6593 23.0486 98.5433 22.8383 98.3111 22.8383C98.6618 24.2114 98.9236 24.8975 99.0964 24.8975Z" fill="black"/>
</g>
<defs>
<clipPath id="clip0_132_9176">
<rect width="179.454" height="39.5854" fill="white" transform="translate(0 0.847168)"/>
</clipPath>
</defs>
</svg>
