<svg width="71" height="70" viewBox="0 0 71 70" fill="none" xmlns="http://www.w3.org/2000/svg">
<g clip-path="url(#clip0_132_9101)">
<path d="M35.6003 0.492676C16.5927 0.492676 1.0918 15.9936 1.0918 35.0012C1.0918 54.0088 16.5927 69.5097 35.6003 69.5097C54.6079 69.5097 70.1089 54.0088 70.1089 35.0012C70.0956 15.9936 54.5946 0.492676 35.6003 0.492676ZM35.6003 65.5249C18.7844 65.5249 5.07662 51.8171 5.07662 35.0012C5.07662 18.1853 18.7844 4.4775 35.6003 4.4775C52.4163 4.4775 66.124 18.1853 66.124 35.0012C66.124 51.8171 52.403 65.5249 35.6003 65.5249Z" fill="black"/>
<path d="M25.7173 58.3229C16.6452 54.4576 10.2695 45.4519 10.2695 34.9984C10.2695 32.3419 10.6813 29.7783 11.4517 27.3608L25.7173 58.3229ZM42.6263 59.3324C40.3948 59.9832 38.0304 60.3286 35.5864 60.3286C33.1424 60.3286 30.7914 59.9832 28.5599 59.3324L35.5864 42.9282L42.6263 59.3324ZM59.7477 27.3741C60.5181 29.7783 60.9299 32.3419 60.9299 34.9984C60.9299 45.4519 54.5409 54.4576 45.4821 58.3096L59.7477 27.3741Z" fill="black"/>
<path d="M48.3639 13.1353C51.4588 14.955 54.1286 17.399 56.214 20.3079L43.5954 47.1258L39.3449 36.8848H31.8534L27.603 47.1258L14.9844 20.3079C17.0698 17.399 19.7396 14.9417 22.8345 13.1353L31.6808 33.7899H39.5176L48.3639 13.1353Z" fill="black"/>
<path d="M35.5996 9.66992C38.0702 9.66992 40.4744 10.0286 42.7325 10.6927L35.5996 27.8673L28.4668 10.6927C30.7249 10.0286 33.1158 9.66992 35.5996 9.66992Z" fill="black"/>
</g>
<defs>
<clipPath id="clip0_132_9101">
<rect width="70" height="70" fill="white" transform="translate(0.626953)"/>
</clipPath>
</defs>
</svg>
